<svg width="10" height="11" viewBox="0 0 10 11" fill="none" xmlns="http://www.w3.org/2000/svg">
<g id="bi:chevron-down">
<path id="Vector" fill-rule="evenodd" clip-rule="evenodd" d="M1.0287 3.40376C1.05773 3.37466 1.09221 3.35157 1.13018 3.33581C1.16814 3.32006 1.20884 3.31195 1.24995 3.31195C1.29105 3.31195 1.33175 3.32006 1.36972 3.33581C1.40769 3.35157 1.44217 3.37466 1.4712 3.40376L4.99995 6.93313L8.5287 3.40376C8.55775 3.3747 8.59225 3.35166 8.63021 3.33593C8.66817 3.32021 8.70886 3.31211 8.74995 3.31211C8.79104 3.31211 8.83173 3.32021 8.86969 3.33593C8.90765 3.35166 8.94214 3.3747 8.9712 3.40376C9.00025 3.43281 9.0233 3.46731 9.03903 3.50527C9.05475 3.54323 9.06284 3.58392 9.06284 3.62501C9.06284 3.6661 9.05475 3.70679 9.03903 3.74475C9.0233 3.78271 9.00025 3.8172 8.9712 3.84626L5.2212 7.59626C5.19217 7.62536 5.15768 7.64845 5.11972 7.6642C5.08175 7.67996 5.04105 7.68807 4.99995 7.68807C4.95884 7.68807 4.91814 7.67996 4.88018 7.6642C4.84221 7.64845 4.80773 7.62536 4.7787 7.59626L1.0287 3.84626C0.999596 3.81723 0.976507 3.78275 0.960753 3.74478C0.944999 3.70681 0.93689 3.66611 0.93689 3.62501C0.93689 3.5839 0.944999 3.5432 0.960753 3.50524C0.976507 3.46727 0.999596 3.43279 1.0287 3.40376Z" fill="#213971"/>
</g>
</svg>
