<svg width="12" height="13" viewBox="0 0 12 13" fill="none" xmlns="http://www.w3.org/2000/svg">
<g id="calendar-icon">
<path id="Vector" d="M11.1006 1.95044H10.1446V2.88802C10.1446 3.60772 9.55565 4.19279 8.83121 4.19279C8.10678 4.19279 7.51786 3.60772 7.51786 2.88802V1.95044H4.41807V2.88802C4.41807 3.60772 3.82916 4.19279 3.10472 4.19279C2.38029 4.19279 1.79138 3.60772 1.79138 2.88802V1.95044H0.899384C0.404107 1.95044 0 2.34946 0 2.84395V11.1965C0 11.6885 0.404107 12.09 0.899384 12.09H11.1006C11.5959 12.09 12 11.6885 12 11.1965V2.84395C12 2.34946 11.5959 1.95044 11.1006 1.95044ZM10.9725 11.0692H1.02752V4.87088H10.9725V11.0692Z" fill="#102A66"/>
<g id="Group">
<path id="Vector_2" d="M3.67889 0.660345V2.88801C3.67889 3.20135 3.42017 3.45839 3.10477 3.45839C2.78937 3.45839 2.53064 3.20135 2.53064 2.88801V0.660345C2.53064 0.347004 2.78937 0.0899658 3.10477 0.0899658C3.42017 0.0899658 3.67889 0.347004 3.67889 0.660345Z" fill="#102A66"/>
</g>
<g id="Group_2">
<path id="Vector_3" d="M9.40533 0.660345V2.88801C9.40533 3.20135 9.14661 3.45839 8.83121 3.45839C8.51581 3.45839 8.25708 3.20135 8.25708 2.88801V0.660345C8.25708 0.347004 8.51581 0.0899658 8.83121 0.0899658C9.14661 0.0899658 9.40533 0.347004 9.40533 0.660345Z" fill="#102A66"/>
</g>
<g id="Group_3">
<path id="Vector_4" d="M3.66405 7.23315H2.54783C2.34578 7.23315 2.17822 7.06914 2.17822 6.86596V6.3274C2.17822 6.12667 2.34332 5.96021 2.54783 5.96021H3.66405C3.86611 5.96021 4.03366 6.12422 4.03366 6.3274V6.86596C4.03366 7.06914 3.86611 7.23315 3.66405 7.23315Z" fill="#102A66"/>
</g>
<g id="Group_4">
<path id="Vector_5" d="M3.66405 9.77905H2.54783C2.34578 9.77905 2.17822 9.61504 2.17822 9.41186V8.8733C2.17822 8.67257 2.34332 8.5061 2.54783 8.5061H3.66405C3.86611 8.5061 4.03366 8.67012 4.03366 8.8733V9.41186C4.03366 9.61504 3.86611 9.77905 3.66405 9.77905Z" fill="#102A66"/>
</g>
<g id="Group_5">
<path id="Vector_6" d="M6.55932 7.23315H5.4431C5.24104 7.23315 5.07349 7.06914 5.07349 6.86596V6.3274C5.07349 6.12667 5.23858 5.96021 5.4431 5.96021H6.55932C6.76137 5.96021 6.92893 6.12422 6.92893 6.3274V6.86596C6.92646 7.06914 6.76137 7.23315 6.55932 7.23315Z" fill="#102A66"/>
</g>
<g id="Group_6">
<path id="Vector_7" d="M6.55932 9.77905H5.4431C5.24104 9.77905 5.07349 9.61504 5.07349 9.41186V8.8733C5.07349 8.67257 5.23858 8.5061 5.4431 8.5061H6.55932C6.76137 8.5061 6.92893 8.67012 6.92893 8.8733V9.41186C6.92646 9.61504 6.76137 9.77905 6.55932 9.77905Z" fill="#102A66"/>
</g>
<g id="Group_7">
<path id="Vector_8" d="M9.39062 7.23315H8.2744C8.07234 7.23315 7.90479 7.06914 7.90479 6.86596V6.3274C7.90479 6.12667 8.06988 5.96021 8.2744 5.96021H9.39062C9.59267 5.96021 9.76023 6.12422 9.76023 6.3274V6.86596C9.75776 7.06914 9.59267 7.23315 9.39062 7.23315Z" fill="#102A66"/>
</g>
<g id="Group_8">
<path id="Vector_9" d="M9.39062 9.77905H8.2744C8.07234 9.77905 7.90479 9.61504 7.90479 9.41186V8.8733C7.90479 8.67257 8.06988 8.5061 8.2744 8.5061H9.39062C9.59267 8.5061 9.76023 8.67012 9.76023 8.8733V9.41186C9.75776 9.61504 9.59267 9.77905 9.39062 9.77905Z" fill="#102A66"/>
</g>
</g>
</svg>
