<svg xmlns="http://www.w3.org/2000/svg" viewBox="0 0 794.77 81.68"><defs><style>.cls-1{fill:#bd944e;}.cls-2{fill:#212f57;}</style></defs><g id="Laag_2" data-name="Laag 2"><g id="Laag_1-2" data-name="Laag 1"><path class="cls-1" d="M49.84,30.4l.66-.64-1.06-1.08L38,40.16l-.56-.54-1.06,1.06.56.54L35.1,43.06,34,44.12l1.06,1.08L38,42.3l.5.48,1.06-1.06-.5-.5L43.32,37l4.36,4.36,6.54-6.56Zm-.46,7.08L48.22,36.3l1-1,1.2,1.16Zm-.18-4.3L46.06,36.3l2.26,2.24-.64.64-3.3-3.3,4.4-4.4,3.32,3.28-.64.64Z"/><path class="cls-1" d="M50.4,54.7a3,3,0,0,0-.82-.6,1.08,1.08,0,0,0,.24-.18,4.24,4.24,0,0,0-6-6,4.21,4.21,0,0,0-1.22,2.64L41.12,49.1l.54-.56-1.08-1.06-.52.54-3.9-3.9L35.1,43.06l-1.84-1.84.54-.54-1.06-1.06-.56.54L20.72,28.68l-1.06,1.08.64.64-4.36,4.36,6.52,6.56L26.84,37l4.28,4.26-.5.5,1.08,1.06.48-.48L34,44.12l1.06,1.08L39,49.1l-.52.5,1.06,1.06.52-.5,1.5,1.5a4.29,4.29,0,0,0-2.68,1.2,4.25,4.25,0,0,0,0,6,4.2,4.2,0,0,0,3,1.24,4.08,4.08,0,0,0,3-1.24,1,1,0,0,0,.2-.22,2.91,2.91,0,0,0,.58.82,3.38,3.38,0,0,0,2.36,1,3.43,3.43,0,0,0,2.38-1,3.33,3.33,0,0,0,1-2.38A3.25,3.25,0,0,0,50.4,54.7ZM19.78,36.46l1.16-1.16,1,1-1.18,1.18Zm2.68,2.72-.62-.64,2.24-2.24-3.14-3.12L18.7,35.4l-.62-.64,3.28-3.28,4.42,4.4Zm21.36,18.6a2.79,2.79,0,0,1-3.24.44l.58-.56L40.08,56.6l-.58.56A2.71,2.71,0,0,1,40,53.92a2.73,2.73,0,0,1,4.66,1.92A2.71,2.71,0,0,1,43.82,57.78Zm1.06-4.92a2.72,2.72,0,0,1,1.94-4.66,2.48,2.48,0,0,1,1.3.34l-.56.56,1.06,1.08.58-.58a2.73,2.73,0,0,1-4.32,3.26Zm4.44,5.5a1.84,1.84,0,0,1-3.14-1.3,1.92,1.92,0,0,1,.12-.66l.84.86,1.08-1.08-.84-.84a1.73,1.73,0,0,1,.64-.12,1.88,1.88,0,0,1,1.86,1.84A1.77,1.77,0,0,1,49.32,58.36Z"/><path class="cls-1" d="M58.24,5.52,51.6.72l-8.72,5L35,0l-8,5.82L17.28.52,11.54,5.4,0,.58V46.44A35.18,35.18,0,0,0,35.08,81.68a34.74,34.74,0,0,0,18-5,35.29,35.29,0,0,0,17-30.23V.6Zm-7.42-.28,5.32,3.82-8.48,3.5L43.42,9.5ZM35,4.64,46.56,13l6.68,4.84,1,.68L60,22.72V29.5L48.22,21l-1-.7-6.64-4.8-5.54-4-5.6,4.06L23.42,13ZM55.3,18.1,60,16.16V21.5Zm-39.5.38L21.9,21,10.14,29.5V22.6Zm-5.66,2.88v-5.2L14.72,18ZM23,21.44l12,4.92,12.14-4.94h0L60,30.72V46.4a25.05,25.05,0,0,1-2.89,11.53A25.19,25.19,0,0,1,44.74,69.36a24.82,24.82,0,0,1-19.86-.23,25.27,25.27,0,0,1-7.77-5.51,24.9,24.9,0,0,1-4.7-6.92,24.65,24.65,0,0,1-1.92-6.23,25.88,25.88,0,0,1-.35-4.07V30.74Zm16.54-5.52L35,17.84,30.54,16l4.54-3.26ZM18.2,5.1l8.22,4.5-4.1,2.94L13.68,9ZM66.78,46.8A31.79,31.79,0,0,1,59.54,67c-.6.72-1.22,1.42-1.88,2.08A31.85,31.85,0,0,1,14,70.52c-.38-.32-.74-.66-1.1-1s-.74-.76-1.1-1.16S11,67.48,10.62,67s-.66-.8-.94-1.2a31.71,31.71,0,0,1-6.3-19V5.72l18,7.52,8.24,3.42L35,18.92l5.52-2.28,5.66,4.08L35,25.28,9.14,14.68V46.4a26.14,26.14,0,0,0,13,22.42,25.63,25.63,0,0,0,13,3.5A26,26,0,0,0,61,46.4V14.68L54.36,17.4h0l-5.72-4.14L66.78,5.72V46.8Z"/><path class="cls-1" d="M28.58,51.66l1.54-1.5.48.5,1.08-1.06-.5-.52,3.9-3.88L34,44.12,30.12,48l-.54-.54L28.5,48.54l.54.56-1.48,1.46a4.21,4.21,0,0,0-1.22-2.64,4.24,4.24,0,0,0-6,6,1,1,0,0,0,.22.18,3.39,3.39,0,0,0-1.78,3,3.35,3.35,0,0,0,3.34,3.36,3.43,3.43,0,0,0,2.38-1,2.5,2.5,0,0,0,.56-.82l.2.22a4.2,4.2,0,0,0,3,1.24,4.08,4.08,0,0,0,3-1.24,4.2,4.2,0,0,0-2.68-7.18Zm-5.14,6.7a1.86,1.86,0,0,1-2.62,0,1.83,1.83,0,0,1-.54-1.3,1.84,1.84,0,0,1,1.84-1.84,1.84,1.84,0,0,1,.66.12l-.84.84L23,57.26l.84-.86A1.83,1.83,0,0,1,23.44,58.36Zm-2-5.5A2.73,2.73,0,0,1,21,49.6l.58.58L22.6,49.1,22,48.54a2.6,2.6,0,0,1,1.32-.34,2.72,2.72,0,0,1,1.92,4.66A2.74,2.74,0,0,1,21.4,52.86Zm9.24,4.3-.56-.56L29,57.66l.56.56a2.79,2.79,0,0,1-3.24-.44,2.73,2.73,0,0,1,0-3.86A2.73,2.73,0,0,1,31,55.84,2.52,2.52,0,0,1,30.64,57.16Z"/><path class="cls-2" d="M98.31,62.73V55.66h6.94V16.29H98.31V9.22h25.57l11.45,33h.24l10.73-33h25.08v7.07h-7.1V55.66h7.1v7.07H144.44V55.66h6.7V18h-.73L134.76,62.81h-5.4L113.15,18h-.73V55.66h6.7v7.07Z"/><path class="cls-2" d="M187.59,63.47a12.34,12.34,0,0,1-8.31-2.77,9.16,9.16,0,0,1-3.23-7.32,9,9,0,0,1,2.67-6.59q3.78-3.82,15.64-5.37a34,34,0,0,0,4.11-.73,1,1,0,0,0,.73-1V36.38q0-3.57-1.69-5.12t-5.25-1.55a12,12,0,0,0-4.83,1,4.89,4.89,0,0,1,1.93,4.15,4.67,4.67,0,0,1-1.61,3.58,5.92,5.92,0,0,1-4.11,1.46,6,6,0,0,1-4.52-1.63,5.51,5.51,0,0,1-1.61-4.06q0-5,5.2-7.65a27.44,27.44,0,0,1,12.7-2.68q15.41,0,15.4,13.25V54.44a2.51,2.51,0,0,0,.49,1.79,2.09,2.09,0,0,0,1.53.48c1,0,1.85-1.21,2.5-3.66l3.95,1.31c-.75,3.14-1.92,5.45-3.51,6.91a10.24,10.24,0,0,1-12.42.2,8.93,8.93,0,0,1-2.86-6.06h-.4Q196.7,63.47,187.59,63.47Zm5.48-6.92a5.24,5.24,0,0,0,4.44-2.32,9.84,9.84,0,0,0,1.69-6V44.51c-.22.06-.69.14-1.41.25s-1.47.24-2.22.41c-2.8.48-4.74,1.22-5.85,2.19a5.46,5.46,0,0,0-1.65,4.31,5,5,0,0,0,1.25,3.5A4.8,4.8,0,0,0,193.07,56.55Z"/><path class="cls-2" d="M220.33,62.73V56h5.56V31.42h-5.56V24.67h16.61v9.76a17.39,17.39,0,0,1,4.76-7.89,10.33,10.33,0,0,1,7-2.68,7.4,7.4,0,0,1,7.66,7.48,7.14,7.14,0,0,1-1.82,5,5.8,5.8,0,0,1-4.47,2,6.63,6.63,0,0,1-4.52-1.54,5.32,5.32,0,0,1-1.77-4.23,1.55,1.55,0,0,1,0-.29,2.47,2.47,0,0,0,0-.36A5.59,5.59,0,0,0,240.37,34a13.11,13.11,0,0,0-2.7,5.25V56h7v6.75Z"/><path class="cls-2" d="M261.62,63.3V13.53h-5.48V6.61h17.34V32.23q3.94-8.46,12-8.45a13,13,0,0,1,9.6,3.9q5.16,5.2,5.16,15.94,0,10.41-5.4,15.86a13.63,13.63,0,0,1-10.08,4.07q-9.12,0-13.23-8l-3.71,7.72ZM280.81,57q6.78,0,6.78-13.18,0-12.43-6.78-12.44A6.57,6.57,0,0,0,274.89,35a18.3,18.3,0,0,0-2.14,9.35,17.17,17.17,0,0,0,2.14,9.15A6.62,6.62,0,0,0,280.81,57Z"/><path class="cls-2" d="M305.57,63.47v-14h6.21a22.86,22.86,0,0,0,5.85,6.3,11.36,11.36,0,0,0,6.65,2.32q4.92,0,4.92-3.91a3.72,3.72,0,0,0-1.93-3.37,32.34,32.34,0,0,0-7.67-2.65q-7.1-1.86-10.28-4.51c-2.12-1.76-3.18-4.3-3.18-7.6a11.53,11.53,0,0,1,3.79-8.71,13.86,13.86,0,0,1,9.92-3.57q6.93,0,10.8,4.71l1.29-4.55h6.29V37H332q-4.92-7.73-10.8-7.73c-3.18,0-4.76,1.22-4.76,3.66A3.46,3.46,0,0,0,318.35,36a35.51,35.51,0,0,0,7.46,2.56q7,1.88,10.41,4.51c2.26,1.76,3.38,4.41,3.38,7.93a11.8,11.8,0,0,1-3.83,8.87q-3.82,3.66-10.44,3.66-7.74,0-12.26-5.21l-1.29,5.13Z"/><path class="cls-2" d="M344.52,10H368.8v3.25H359v46.2h19.68q2.34,0,3.3-3t2.58-13.7h2.59V62.73H344.52V59.48h8.87V13.28h-8.87Z"/><path class="cls-2" d="M393.15,62.73V59.48h6.94V30h-6.94V26.7h12.1V59.48h6.94v3.25Zm9-44.73a3.92,3.92,0,0,1-2.83-1.1A3.85,3.85,0,0,1,398.23,14a4,4,0,0,1,1.13-2.88A3.76,3.76,0,0,1,402.19,10a3.63,3.63,0,0,1,2.66,1.14A3.87,3.87,0,0,1,406,13.93a4.08,4.08,0,0,1-1.09,2.93A3.6,3.6,0,0,1,402.19,18Z"/><path class="cls-2" d="M416.62,62.73V59.48h6.13V30h-7.42V26.7h7.42V23.86q0-9.19,4-13.34a13.52,13.52,0,0,1,10.2-4.15,12.71,12.71,0,0,1,7,1.87,5.73,5.73,0,0,1,2.94,5,4.32,4.32,0,0,1-1.09,3,3.36,3.36,0,0,1-2.62,1.22,3.64,3.64,0,0,1-2.74-1,3.61,3.61,0,0,1-1-2.57,3.69,3.69,0,0,1,.65-2.15,3.21,3.21,0,0,1,1.21-1.18q-1.38-1.47-4.68-1.47c-3,0-5.22,1.1-6.61,3.3s-2.1,5.92-2.1,11.18V26.7h10.81V30H427.91V59.48h8.55v3.25Z"/><path class="cls-2" d="M473.88,44.92H448.4q.08,7.15,3.3,11.06a10.46,10.46,0,0,0,8.47,3.91q7.66,0,10.48-7.4h3a16,16,0,0,1-5.36,8.17,14.27,14.27,0,0,1-8.92,2.81,15.3,15.3,0,0,1-12-5.09q-4.56-5.09-4.56-13.3a19.8,19.8,0,0,1,4.84-13.66A15.1,15.1,0,0,1,459.36,26a12.35,12.35,0,0,1,10.93,5.57A22.54,22.54,0,0,1,473.88,44.92Zm-14.68-16A9.08,9.08,0,0,0,452,32.31a16.52,16.52,0,0,0-3.46,9.36H468.4q-.4-6.18-2.79-9.48A7.51,7.51,0,0,0,459.2,28.9Z"/><path class="cls-2" d="M480.73,63.47V49.8h2.67q3.06,10.81,12.33,10.82A9,9,0,0,0,501.38,59a5.68,5.68,0,0,0,0-9c-1.45-1-4-2.1-7.74-3.13-4.47-1.24-7.62-2.67-9.48-4.27a8,8,0,0,1-2.78-6.38,9.44,9.44,0,0,1,3.35-7.2A12,12,0,0,1,493.15,26q6.86,0,9.76,4.47l1-4.47h2.58V38.33H504a20.54,20.54,0,0,0-4.39-7.28,9,9,0,0,0-6.42-2.23,8,8,0,0,0-5,1.58,5,5,0,0,0-2.05,4.11,5.21,5.21,0,0,0,2.21,4.35A23.49,23.49,0,0,0,495.65,42q7,2,9.68,4.27A8.07,8.07,0,0,1,508,52.81a10,10,0,0,1-3.34,7.48A12.07,12.07,0,0,1,496,63.47q-7.59,0-11.78-5.29l-.88,5.29Z"/><path class="cls-2" d="M519.52,16.62l5.17-.82V26.7h11.69V30H524.69V53.87c0,3.9,1.55,5.85,4.67,5.85a4.84,4.84,0,0,0,3.71-1.54,13.45,13.45,0,0,0,2.58-5L538,54q-2.58,9.51-9.76,9.52a8.11,8.11,0,0,1-6.49-2.57c-1.48-1.7-2.22-4.16-2.22-7.36V30H512.1V26.7h7.42Z"/><path class="cls-2" d="M544,66.15a3.47,3.47,0,0,1,3.63,3.58,4.68,4.68,0,0,1-1,3,6.45,6.45,0,0,0,4.88-1.91q2.46-2.16,4.8-8L543.48,30h-4.84V26.7h16.93V30h-6.29l9.92,26.59L569.28,30h-5.8V26.7H577V30h-4.12l-12.17,30.9q-3.24,8.22-6.7,11.55a10.84,10.84,0,0,1-7.66,3.34,7.07,7.07,0,0,1-4.72-1.47,4.8,4.8,0,0,1-.56-6.83A3.78,3.78,0,0,1,544,66.15Z"/><path class="cls-2" d="M578.56,62.73V59.48h6.93V10h-6.93V6.86h12.1V59.48h6.93v3.25Z"/><path class="cls-2" d="M633.48,44.92H608q.09,7.15,3.31,11.06a10.46,10.46,0,0,0,8.47,3.91q7.66,0,10.48-7.4h3a16,16,0,0,1-5.37,8.17A14.22,14.22,0,0,1,619,63.47a15.29,15.29,0,0,1-12-5.09q-4.56-5.09-4.56-13.3a19.8,19.8,0,0,1,4.84-13.66A15.08,15.08,0,0,1,619,26a12.35,12.35,0,0,1,10.93,5.57A22.54,22.54,0,0,1,633.48,44.92Zm-14.68-16a9.08,9.08,0,0,0-7.18,3.41,16.52,16.52,0,0,0-3.46,9.36H628q-.4-6.18-2.78-9.48A7.51,7.51,0,0,0,618.8,28.9Z"/><path class="cls-2" d="M647.63,62.69a4.06,4.06,0,0,1-5.72,0,4.14,4.14,0,0,1,0-5.77,4.06,4.06,0,0,1,5.72,0,4.14,4.14,0,0,1,0,5.77Z"/><path class="cls-2" d="M671.06,63.47a14.83,14.83,0,0,1-11.45-5A18.31,18.31,0,0,1,655,45.57q0-8.7,4.8-14.15T672.67,26a14.26,14.26,0,0,1,9.48,3.29q3.92,3.3,3.91,7a5.27,5.27,0,0,1-1.17,3.46,3.76,3.76,0,0,1-3,1.42A3.71,3.71,0,0,1,679,39.92a4.2,4.2,0,0,1,2-6.87,9.8,9.8,0,0,0-8.47-4.15,10.23,10.23,0,0,0-8.71,4.43q-3.22,4.44-3.22,11.59,0,6.91,3.14,11A10.16,10.16,0,0,0,672.19,60q7.66,0,11.21-8.79h3.06a16.59,16.59,0,0,1-5.6,9.15A15.38,15.38,0,0,1,671.06,63.47Z"/><path class="cls-2" d="M709.29,63.47a15.8,15.8,0,0,1-12-5q-4.75-5-4.76-13.34t4.92-13.74A15.51,15.51,0,0,1,709.29,26a15.81,15.81,0,0,1,12,5.08q4.8,5.08,4.8,13.38t-4.92,13.71A15.57,15.57,0,0,1,709.29,63.47Zm.24-2.93a9.54,9.54,0,0,0,7.78-4.11q3.18-4.11,3.19-11.75T717.11,33A10.19,10.19,0,0,0,709,28.9,9.54,9.54,0,0,0,701.26,33q-3.18,4.11-3.18,11.83t3.38,11.67A10.23,10.23,0,0,0,709.53,60.54Z"/><path class="cls-2" d="M766,35.89Q771.62,26,779.12,26q9.52,0,9.52,11.63V59.48h6.13v3.25H778.24V59.48h5.24v-19q0-6.51-2-8.54a6.2,6.2,0,0,0-4.59-1.55q-4.2,0-7.5,4T766.06,42V59.48h5.24v3.25H755.66V59.48h5.24v-19q0-6.51-2-8.54a6.2,6.2,0,0,0-4.59-1.55q-4.2,0-7.5,4T743.48,42V59.48h5.24v3.25H732.19V59.48h6.13V30h-6.13V26.7h11.13v9.36Q749,26,756.54,26,765.26,26,766,35.89Z"/></g></g></svg>