<?xml version="1.0" encoding="utf-8"?>
<!-- Generator: Adobe Illustrator 27.0.0, SVG Export Plug-In . SVG Version: 6.00 Build 0)  -->
<svg version="1.1" id="Layer_1" xmlns="http://www.w3.org/2000/svg" xmlns:xlink="http://www.w3.org/1999/xlink" x="0px" y="0px"
	 viewBox="0 0 26 22.2" style="enable-background:new 0 0 26 22.2;" xml:space="preserve">
<style type="text/css">
	.st0{fill:#102A66;}
</style>
<g>
	<path class="st0" d="M18.7,1c0.3,0,0.7,0,1,0.1c3,0.5,5.2,3.1,5.2,6.1v0.3c0,1.8-0.8,3.6-2.1,4.8l-9.2,8.5
		c-0.2,0.2-0.5,0.3-0.7,0.3s-0.5-0.1-0.7-0.3L3,12.4c-1.2-1.3-2-3-2-4.8V7.2c0-3.1,2.2-5.6,5.2-6.1C6.6,1,6.9,1,7.2,1
		c1.6,0,3.2,0.6,4.3,1.7c0.1,0.1,0.1,0.1,0.2,0.2l0.5,0.5c0.2,0.2,0.4,0.3,0.7,0.3l0,0c0.3,0,0.5-0.1,0.7-0.3l0.6-0.6
		C15.5,1.7,17.1,1,18.7,1 M13.4,2.1L13.4,2.1L13.4,2.1 M7.2,0C6.8,0,6.5,0,6.1,0.1C2.6,0.7,0,3.7,0,7.2v0.3c0,2.1,0.9,4.1,2.4,5.5
		l9.2,8.5c0.4,0.4,0.9,0.6,1.4,0.6s1-0.2,1.4-0.6l9.2-8.5c1.5-1.4,2.4-3.5,2.4-5.5V7.2c0-3.5-2.6-6.5-6.1-7.1C19.5,0,19.1,0,18.7,0
		c-1.9,0-3.8,0.8-5.2,2.1L13,2.7l-0.6-0.6l0,0l0,0C11,0.8,9.1,0,7.2,0L7.2,0z"/>
</g>
</svg>
