<svg xmlns="http://www.w3.org/2000/svg" viewBox="0 0 19.87 17.78"><defs><style>.cls-1{fill:#bd944e;}</style></defs><g id="Laag_2" data-name="Laag 2"><g id="Laag_1-2" data-name="Laag 1"><path class="cls-1" d="M17.42,1,17.78.6l-.6-.6L10.76,6.43l-.31-.31-.59.6.3.3L6.35,10.83l-.3-.31-.6.6.31.3-.83.83a2.38,2.38,0,0,0-4-1.47,2.39,2.39,0,0,0,0,3.36l.12.11a1.38,1.38,0,0,0-.45.32,1.89,1.89,0,0,0,0,2.66,1.91,1.91,0,0,0,1.33.55,1.91,1.91,0,0,0,1.33-.55,1.76,1.76,0,0,0,.32-.45l.11.12a2.38,2.38,0,1,0,1.89-4L6.36,12l.28.28.59-.59L7,11.43l3.81-3.81L11,7.9l.6-.59L11.36,7l2.4-2.4L16.2,7.07l3.67-3.66ZM2.61,16.63a1,1,0,1,1-.73-1.76,1.19,1.19,0,0,1,.37.06l-.48.48.6.6.47-.47a.86.86,0,0,1,.07.36A1,1,0,0,1,2.61,16.63ZM1.48,13.54A1.51,1.51,0,0,1,1,12.46a1.43,1.43,0,0,1,.2-.73l.32.31.59-.6-.31-.31a1.36,1.36,0,0,1,.73-.2,1.53,1.53,0,1,1-1.08,2.61Zm4.92.6A1.51,1.51,0,0,1,6.65,16l-.32-.32-.59.59.32.32a1.52,1.52,0,1,1,.34-2.41ZM17.15,4.93l-.66-.66.57-.57.66.66Zm-.09-2.42L15.3,4.27l1.26,1.26-.36.35L14.35,4l2.47-2.47,1.85,1.85-.35.36Z"/></g></g></svg>