<svg xmlns="http://www.w3.org/2000/svg" viewBox="0 0 116.4 62.4" fill='#bd944e'><defs><style>.cls-1{fill:#fff;}</style></defs><g id="Laag_2" data-name="Laag 2"><g id="Слой_1" data-name="Слой 1"><path d="M58.2,0C29.8,0,2.3,27.1,1.2,28.3a4.1,4.1,0,0,0,0,5.8c1.2,1.2,28.6,28.3,57,28.3s55.9-27.1,57-28.3a4.1,4.1,0,0,0,0-5.8C114.1,27.1,86.7,0,58.2,0Zm0,54.1c-19.9,0-40.4-16.2-48.1-23,7.7-6.8,28.2-23,48.1-23s40.4,16.2,48.1,23C98.6,37.9,78.1,54.1,58.2,54.1Z"/><path d="M43.5,31.1A14.8,14.8,0,1,0,58.3,16.3,14.83,14.83,0,0,0,43.5,31.1Z"/><path class="cls-1" d="M45.5,24a7.1,7.1,0,1,0,7.1-7.1A7.13,7.13,0,0,0,45.5,24Z"/></g></g></svg>