<svg width="12" height="16" viewBox="0 0 12 16" fill="none" xmlns="http://www.w3.org/2000/svg">
<g clip-path="url(#clip0_195_911)">
<path d="M11.4286 5.25788C11.4158 4.48709 11.2359 3.72827 10.9014 3.03372C10.567 2.33918 10.0858 1.72543 9.49122 1.23482C8.89661 0.7442 8.20266 0.38838 7.45723 0.191893C6.71181 -0.00459334 5.93263 -0.0370726 5.17344 0.0966953C4.41424 0.230463 3.69309 0.527296 3.05971 0.966725C2.42633 1.40615 1.89579 1.97772 1.50467 2.64203C1.11355 3.30633 0.871155 4.04755 0.794204 4.81459C0.717254 5.58163 0.807576 6.35623 1.05894 7.08499C1.11882 7.23104 1.18309 7.37709 1.25173 7.52314C1.32038 7.6692 1.39778 7.8357 1.47373 7.99343L1.53507 8.12488L1.57451 8.20813C2.18695 9.5002 2.79745 10.7932 3.406 12.0873L4.81686 15.0901L4.86068 15.1836C4.95426 15.396 5.09752 15.5828 5.27839 15.7283L5.29153 15.7386C5.48909 15.8844 5.72261 15.9736 5.96704 15.9968C6.21148 16.0199 6.4576 15.9761 6.67902 15.87C6.97261 15.7089 7.207 15.4581 7.34794 15.1544C7.36839 15.1149 7.38884 15.074 7.40782 15.0317C7.8859 14.0103 8.36349 12.9918 8.84059 11.9763C9.4433 10.6891 10.0484 9.40283 10.656 8.11758L10.6984 8.03287L11.0518 7.2807C11.081 7.22082 11.1073 7.16093 11.1321 7.09959C11.3214 6.55397 11.4215 5.98141 11.4286 5.40393V5.25788ZM6.09336 8.00365C5.5648 8.00337 5.04819 7.84637 4.60885 7.55251C4.16951 7.25864 3.82717 6.84112 3.6251 6.35271C3.42303 5.8643 3.3703 5.32695 3.4736 4.80858C3.57689 4.29021 3.83156 3.81411 4.20541 3.44047C4.57926 3.06682 5.0555 2.81241 5.57393 2.7094C6.09235 2.60639 6.62967 2.65941 7.11797 2.86174C7.60627 3.06408 8.02361 3.40665 8.31723 3.84615C8.61085 4.28565 8.76757 4.80234 8.76757 5.3309C8.76757 5.68202 8.69839 6.02969 8.56398 6.35406C8.42957 6.67843 8.23256 6.97313 7.98422 7.22134C7.73588 7.46955 7.44106 7.66639 7.11662 7.80062C6.79218 7.93486 6.44447 8.00385 6.09336 8.00365Z" fill="#212F57"/>
</g>
<defs>
<clipPath id="clip0_195_911">
<rect width="10.6618" height="16" fill="white" transform="translate(0.766846)"/>
</clipPath>
</defs>
</svg>
