<svg width="24" height="24" viewBox="0 0 24 24" fill="none" xmlns="http://www.w3.org/2000/svg">
<path d="M11.46 1.13701C11.811 1.02301 12.189 1.02301 12.54 1.13701L20.79 3.81201C21.1416 3.92606 21.448 4.14849 21.6654 4.44742C21.8827 4.74634 21.9999 5.10641 22 5.47601V10.5C22 16.69 18.23 21.205 12.599 23.33C12.2128 23.475 11.7872 23.475 11.401 23.33C5.771 21.204 2 16.69 2 10.5V5.47601C2 4.71601 2.49 4.04601 3.21 3.81201L11.46 1.13701ZM12.077 2.56301C12.0269 2.54701 11.9731 2.54701 11.923 2.56301L3.673 5.24001C3.62287 5.25624 3.57914 5.2879 3.54807 5.33046C3.517 5.37303 3.50018 5.42432 3.5 5.47701V10.5C3.5 15.961 6.78 19.983 11.93 21.926C11.9751 21.943 12.0249 21.943 12.07 21.926C17.22 19.983 20.5 15.961 20.5 10.5V5.47601C20.4998 5.42332 20.483 5.37203 20.4519 5.32946C20.4209 5.2869 20.3771 5.25524 20.327 5.23901L12.077 2.56301ZM13 12.232V15C13 15.2652 12.8946 15.5196 12.7071 15.7071C12.5196 15.8947 12.2652 16 12 16C11.7348 16 11.4804 15.8947 11.2929 15.7071C11.1054 15.5196 11 15.2652 11 15V12.232C10.6187 12.0119 10.3207 11.6721 10.1522 11.2653C9.98376 10.8586 9.9542 10.4076 10.0681 9.98233C10.1821 9.55706 10.4332 9.18128 10.7825 8.91326C11.1318 8.64524 11.5597 8.49996 12 8.49996C12.4403 8.49996 12.8682 8.64524 13.2175 8.91326C13.5668 9.18128 13.8179 9.55706 13.9319 9.98233C14.0458 10.4076 14.0162 10.8586 13.8478 11.2653C13.6793 11.6721 13.3813 12.0119 13 12.232Z" fill="white"/>
</svg>
