<svg width="51" height="14" viewBox="0 0 51 14" fill="none" xmlns="http://www.w3.org/2000/svg">
<path fill-rule="evenodd" clip-rule="evenodd" d="M0.770386 7C0.770386 6.72386 0.994243 6.5 1.27039 6.5H50.5C50.7761 6.5 51 6.72386 51 7C51 7.27614 50.7761 7.5 50.5 7.5H1.27039C0.994243 7.5 0.770386 7.27614 0.770386 7Z" fill="#BD944E"/>
<path fill-rule="evenodd" clip-rule="evenodd" d="M7.62826 0.668358C7.43184 0.451596 7.10521 0.443012 6.8987 0.649185L0.930776 6.60752C0.828362 6.70977 0.770385 6.85164 0.770385 7C0.770385 7.14836 0.828362 7.29023 0.930776 7.39248L6.8987 13.3508C7.10521 13.557 7.43184 13.5484 7.62826 13.3316C7.82468 13.1149 7.8165 12.772 7.60999 12.5659L2.03518 7L7.60999 1.43415C7.8165 1.22798 7.82468 0.88512 7.62826 0.668358Z" fill="#BD944E"/>
</svg>
