<svg width="16" height="16" viewBox="0 0 16 16" fill="none" xmlns="http://www.w3.org/2000/svg">
<g clip-path="url(#clip0_9_3496)">
<path d="M0.340792 7.90428C0.34042 9.24859 0.691676 10.5612 1.35958 11.7182L0.276917 15.6712L4.32231 14.6104C5.44121 15.2196 6.69486 15.5387 7.96882 15.5388H7.97217C12.1778 15.5388 15.6012 12.1166 15.603 7.91029C15.6038 5.87203 14.8107 3.95538 13.3699 2.51339C11.9293 1.07153 10.0133 0.277053 7.97186 0.276123C3.76579 0.276123 0.342591 3.69814 0.340854 7.90428" fill="url(#paint0_linear_9_3496)"/>
<path d="M0.0683708 7.90177C0.0679366 9.29445 0.431782 10.654 1.1235 11.8524L0.00201416 15.9471L4.19246 14.8484C5.34707 15.4779 6.64704 15.8098 7.96983 15.8103H7.97324C12.3297 15.8103 15.8761 12.265 15.878 7.90809C15.8787 5.79659 15.0571 3.81104 13.5648 2.3174C12.0723 0.823938 10.0878 0.000868217 7.97324 0C3.61603 0 0.0701072 3.54481 0.0683708 7.90177ZM2.56387 11.646L2.40741 11.3976C1.74967 10.3518 1.40251 9.14326 1.40301 7.90226C1.40443 4.28087 4.35166 1.33457 7.97572 1.33457C9.73076 1.33532 11.3801 2.01947 12.6207 3.26078C13.8612 4.5022 14.5438 6.15243 14.5433 7.9076C14.5417 11.529 11.5944 14.4757 7.97324 14.4757H7.97063C6.79153 14.475 5.63513 14.1584 4.62663 13.56L4.38663 13.4177L1.89994 14.0696L2.56387 11.646V11.646Z" fill="url(#paint1_linear_9_3496)"/>
<path d="M5.99756 4.59831C5.8496 4.26944 5.69387 4.2628 5.55316 4.25704C5.43794 4.25208 5.30622 4.25245 5.17462 4.25245C5.0429 4.25245 4.82888 4.302 4.64798 4.49952C4.4669 4.69722 3.95663 5.17499 3.95663 6.14671C3.95663 7.11849 4.66442 8.0576 4.76308 8.1895C4.86187 8.32116 6.12947 10.3791 8.13704 11.1708C9.8055 11.8287 10.145 11.6978 10.5071 11.6649C10.8693 11.632 11.6758 11.1872 11.8403 10.726C12.0049 10.2649 12.0049 9.86956 11.9556 9.78696C11.9062 9.70466 11.7745 9.65524 11.577 9.55651C11.3794 9.45772 10.4084 8.97989 10.2273 8.91397C10.0462 8.84811 9.91459 8.81524 9.78287 9.01301C9.65115 9.21046 9.27291 9.65524 9.15763 9.78696C9.04246 9.91899 8.92718 9.93542 8.72972 9.83663C8.53208 9.73753 7.89598 9.52922 7.14132 8.85642C6.55415 8.33288 6.15775 7.68637 6.04253 7.4886C5.9273 7.29115 6.03018 7.18411 6.12922 7.08569C6.21797 6.99719 6.32681 6.85505 6.42566 6.73977C6.52414 6.62442 6.55701 6.54212 6.62287 6.4104C6.68879 6.27856 6.6558 6.16321 6.60649 6.06442C6.55701 5.96563 6.17319 4.98882 5.99756 4.59831Z" fill="white"/>
</g>
<defs>
<linearGradient id="paint0_linear_9_3496" x1="766.581" y1="1539.78" x2="766.581" y2="0.276123" gradientUnits="userSpaceOnUse">
<stop stop-color="#1FAF38"/>
<stop offset="1" stop-color="#60D669"/>
</linearGradient>
<linearGradient id="paint1_linear_9_3496" x1="793.8" y1="1594.71" x2="793.8" y2="0" gradientUnits="userSpaceOnUse">
<stop stop-color="#F9F9F9"/>
<stop offset="1" stop-color="white"/>
</linearGradient>
<clipPath id="clip0_9_3496">
<rect width="15.88" height="16" fill="white"/>
</clipPath>
</defs>
</svg>
