<?xml version="1.0" encoding="utf-8"?>
<!-- Generator: Adobe Illustrator 27.5.0, SVG Export Plug-In . SVG Version: 6.00 Build 0)  -->
<svg version="1.1" id="Layer_1" xmlns="http://www.w3.org/2000/svg" xmlns:xlink="http://www.w3.org/1999/xlink" x="0px" y="0px"
	 viewBox="0 0 1000 758.6" style="enable-background:new 0 0 1000 758.6;" xml:space="preserve">
<style type="text/css">
	.st0{fill:#C9D3D6;}
</style>
<g>
	<g>
		<g>
			<path class="st0" d="M8.5,78.4H600H8.5z"/>
			<rect x="8.5" y="62.6" class="st0" width="591.5" height="31.5"/>
		</g>
		<g>
			<path class="st0" d="M811.3,78.4h180.4H811.3z"/>
			<rect x="811.3" y="62.6" class="st0" width="180.4" height="31.5"/>
		</g>
		<path class="st0" d="M707.4,42.8c21.5,0,39.1,17.5,39.1,39.1S728.9,121,707.4,121s-39.1-17.5-39.1-39.1S685.8,42.8,707.4,42.8
			 M707.4,7.8c-40.9,0-74.1,33.2-74.1,74.1s33.2,74.1,74.1,74.1c40.9,0,74.1-33.2,74.1-74.1S748.3,7.8,707.4,7.8L707.4,7.8z"/>
	</g>
	<g>
		<g>
			<path class="st0" d="M8.5,673.2H600H8.5z"/>
			<rect x="8.5" y="657.5" class="st0" width="591.5" height="31.5"/>
		</g>
		<g>
			<path class="st0" d="M811.3,673.2h180.4H811.3z"/>
			<rect x="811.3" y="657.5" class="st0" width="180.4" height="31.5"/>
		</g>
		<path class="st0" d="M707.4,637.6c21.5,0,39.1,17.5,39.1,39.1c0,21.5-17.5,39.1-39.1,39.1c-21.5,0-39.1-17.5-39.1-39.1
			C668.3,655.2,685.8,637.6,707.4,637.6 M707.4,602.6c-40.9,0-74.1,33.2-74.1,74.1s33.2,74.1,74.1,74.1c40.9,0,74.1-33.2,74.1-74.1
			S748.3,602.6,707.4,602.6L707.4,602.6z"/>
	</g>
	<g>
		<g>
			<path class="st0" d="M991.7,380.7H400.2H991.7z"/>
			<rect x="400.2" y="365" class="st0" width="591.5" height="31.5"/>
		</g>
		<g>
			<path class="st0" d="M188.9,380.7H8.5H188.9z"/>
			<rect x="8.5" y="365" class="st0" width="180.4" height="31.5"/>
		</g>
		<path class="st0" d="M292.8,345.2c21.5,0,39.1,17.5,39.1,39.1s-17.5,39.1-39.1,39.1c-21.5,0-39.1-17.5-39.1-39.1
			S271.3,345.2,292.8,345.2 M292.8,310.1c-40.9,0-74.1,33.2-74.1,74.1s33.2,74.1,74.1,74.1s74.1-33.2,74.1-74.1
			S333.8,310.1,292.8,310.1L292.8,310.1z"/>
	</g>
</g>
</svg>
