<svg width="129" height="130" viewBox="0 0 129 130" fill="none" xmlns="http://www.w3.org/2000/svg">
<path d="M94.6699 84.045C102.477 73.3093 105.973 59.999 104.46 46.7768C102.947 33.5547 96.5356 21.3959 86.5087 12.7329C76.4818 4.06998 63.5789 -0.458221 50.3812 0.0542485C37.1836 0.566718 24.6647 6.08207 15.329 15.4969C5.99328 24.9117 0.529313 37.5316 0.03023 50.8319C-0.468853 64.1322 4.03375 77.1319 12.6372 87.2304C21.2407 97.3288 33.3106 103.781 46.4321 105.297C59.5536 106.812 72.7591 103.279 83.4066 95.4037H83.3985C83.6404 95.7287 83.8984 96.0375 84.1886 96.3381L115.229 127.619C116.741 129.144 118.792 130.001 120.931 130.002C123.069 130.002 125.121 129.147 126.634 127.623C128.147 126.1 128.997 124.033 128.998 121.878C128.998 119.723 128.149 117.655 126.638 116.131L111.117 100.49L95.5971 84.8494C95.3088 84.5553 94.9989 84.2837 94.6699 84.0369V84.045ZM96.75 52.8125C96.75 58.6809 95.603 64.4919 93.3745 69.9137C91.1461 75.3354 87.8797 80.2617 83.762 84.4113C79.6443 88.561 74.7559 91.8526 69.3759 94.0984C63.9958 96.3441 58.2296 97.5 52.4063 97.5C46.583 97.5 40.8167 96.3441 35.4366 94.0984C30.0566 91.8526 25.1682 88.561 21.0505 84.4113C16.9328 80.2617 13.6665 75.3354 11.438 69.9137C9.20949 64.4919 8.06251 58.6809 8.06251 52.8125C8.06251 40.9606 12.7344 29.5942 21.0505 21.2137C29.3666 12.8331 40.6456 8.125 52.4063 8.125C64.167 8.125 75.446 12.8331 83.762 21.2137C92.0781 29.5942 96.75 40.9606 96.75 52.8125Z" fill="#c9d3d6"/>
</svg>
