<?xml version="1.0" encoding="utf-8"?>
<!-- Generator: Adobe Illustrator 27.9.0, SVG Export Plug-In . SVG Version: 6.00 Build 0)  -->
<svg version="1.1" id="Layer_1" xmlns="http://www.w3.org/2000/svg" xmlns:xlink="http://www.w3.org/1999/xlink" x="0px" y="0px"
	 viewBox="0 0 88.4 17" style="enable-background:new 0 0 88.4 17;" xml:space="preserve">
<style type="text/css">
	.st0{fill:#BD944E;}
</style>
<g id="ion:star-sharp">
	<path id="Vector" class="st0" d="M15.5,6.9H9.8L8,1.5L6.2,6.9H0.5l4.7,3.3l-1.8,5.4L8,12.2l4.6,3.3l-1.8-5.4L15.5,6.9z"/>
</g>
<g id="ion:star-sharp_00000034049737043664112570000001919159798450250638_">
	<path id="Vector_00000073707638043298098770000011706562822174364300_" class="st0" d="M33.5,6.9h-5.7L26,1.5l-1.8,5.4h-5.7
		l4.7,3.3l-1.8,5.4l4.6-3.3l4.6,3.3l-1.8-5.4L33.5,6.9z"/>
</g>
<g id="ion:star-sharp_00000096772000983981561740000006798224904560597121_">
	<path id="Vector_00000050630572725656668120000001248571417940937396_" class="st0" d="M51.5,6.9h-5.7L44,1.5l-1.8,5.4h-5.7
		l4.7,3.3l-1.8,5.4l4.6-3.3l4.6,3.3l-1.8-5.4L51.5,6.9z"/>
</g>
<g id="ion:star-sharp_00000159463038377781334980000017390619087433565849_">
	<path id="Vector_00000093899358697684306300000014882775184499125681_" class="st0" d="M69.5,6.9h-5.7L62,1.5l-1.8,5.4h-5.7
		l4.7,3.3l-1.8,5.4l4.6-3.3l4.6,3.3l-1.8-5.4L69.5,6.9z"/>
</g>
<g id="ion:star-sharp_00000022554452160805741010000017680138895229176459_">
	<path id="Vector_00000059268846517740081350000015963719195119668108_" class="st0" d="M87.5,6.9h-5.7L80,1.5l-1.8,5.4h-5.7
		l4.7,3.3l-1.8,5.4l4.6-3.3l4.6,3.3l-1.8-5.4L87.5,6.9z"/>
</g>
</svg>
