<?xml version="1.0" encoding="utf-8"?>
<!-- Generator: Adobe Illustrator 27.9.0, SVG Export Plug-In . SVG Version: 6.00 Build 0)  -->
<svg version="1.1" id="Layer_1" xmlns="http://www.w3.org/2000/svg" xmlns:xlink="http://www.w3.org/1999/xlink" x="0px" y="0px"
	 viewBox="0 0 88.4 17" style="enable-background:new 0 0 88.4 17;" xml:space="preserve">
<style type="text/css">
	.st0{fill:#BD944E;}
</style>
<g id="ion:star-sharp">
	<g id="Vector">
		<path class="st0" d="M8,3.9l1,3.2l0.2,0.5h0.5h3.4l-2.8,1.9L9.9,9.9l0.2,0.5l1.1,3.1l-2.7-2L8,11.3l-0.4,0.3l-2.7,2l1.1-3.1
			l0.2-0.5L5.6,9.5L2.9,7.6h3.4h0.5L7,7.1L8,3.9 M8,1.5L6.2,6.9H0.5l4.7,3.3l-1.8,5.4L8,12.2l4.6,3.3l-1.8-5.4l4.7-3.3H9.8L8,1.5
			L8,1.5z"/>
	</g>
</g>
<g id="ion:star-sharp_00000034049737043664112570000001919159798450250638_">
	<g id="Vector_00000073707638043298098770000011706562822174364300_">
		<path class="st0" d="M26,3.9l1,3.2l0.2,0.5h0.5h3.4l-2.8,1.9l-0.5,0.3l0.2,0.5l1.1,3.1l-2.7-2L26,11.3l-0.4,0.3l-2.7,2l1.1-3.1
			l0.2-0.5l-0.5-0.3l-2.8-1.9h3.4h0.5L25,7.1L26,3.9 M26,1.5l-1.8,5.4h-5.7l4.7,3.3l-1.8,5.4l4.6-3.3l4.6,3.3l-1.8-5.4l4.7-3.3h-5.7
			L26,1.5L26,1.5z"/>
	</g>
</g>
<g id="ion:star-sharp_00000096772000983981561740000006798224904560597121_">
	<g id="Vector_00000050630572725656668120000001248571417940937396_">
		<path class="st0" d="M44,3.9l1,3.2l0.2,0.5h0.5h3.4l-2.8,1.9l-0.5,0.3l0.2,0.5l1.1,3.1l-2.7-2L44,11.3l-0.4,0.3l-2.7,2l1.1-3.1
			l0.2-0.5l-0.5-0.3l-2.8-1.9h3.4h0.5L43,7.1L44,3.9 M44,1.5l-1.8,5.4h-5.7l4.7,3.3l-1.8,5.4l4.6-3.3l4.6,3.3l-1.8-5.4l4.7-3.3h-5.7
			L44,1.5L44,1.5z"/>
	</g>
</g>
<g id="ion:star-sharp_00000159463038377781334980000017390619087433565849_">
	<g id="Vector_00000093899358697684306300000014882775184499125681_">
		<path class="st0" d="M62,3.9l1,3.2l0.2,0.5h0.5h3.4l-2.8,1.9l-0.5,0.3l0.2,0.5l1.1,3.1l-2.7-2L62,11.3l-0.4,0.3l-2.7,2l1.1-3.1
			l0.2-0.5l-0.5-0.3l-2.8-1.9h3.4h0.5L61,7.1L62,3.9 M62,1.5l-1.8,5.4h-5.7l4.7,3.3l-1.8,5.4l4.6-3.3l4.6,3.3l-1.8-5.4l4.7-3.3h-5.7
			L62,1.5L62,1.5z"/>
	</g>
</g>
<g id="ion:star-sharp_00000022554452160805741010000017680138895229176459_">
	<g id="Vector_00000059268846517740081350000015963719195119668108_">
		<path class="st0" d="M80,3.9l1,3.2l0.2,0.5h0.5h3.4l-2.8,1.9l-0.5,0.3l0.2,0.5l1.1,3.1l-2.7-2L80,11.3l-0.4,0.3l-2.7,2l1.1-3.1
			l0.2-0.5l-0.5-0.3l-2.8-1.9h3.4h0.5L79,7.1L80,3.9 M80,1.5l-1.8,5.4h-5.7l4.7,3.3l-1.8,5.4l4.6-3.3l4.6,3.3l-1.8-5.4l4.7-3.3h-5.7
			L80,1.5L80,1.5z"/>
	</g>
</g>
</svg>
