<svg width="64" height="57" viewBox="0 0 64 57" fill="none" xmlns="http://www.w3.org/2000/svg">
<g id="Group">
<path id="Vector" d="M60.1258 3.64122H48.1156V0H47.2408V3.64122H16.7467V0H15.8719V3.64122H3.86175C1.73716 3.64122 0 5.37454 0 7.49442V53.1468C0 55.2667 1.73716 57 3.86175 57H60.1383C62.2628 57 64 55.2667 64 53.1468V7.49442C63.9875 5.37454 62.2503 3.64122 60.1258 3.64122ZM63.2377 53.1468C63.2377 54.8552 61.8379 56.2518 60.1258 56.2518H3.86175C2.14958 56.2518 0.749854 54.8552 0.749854 53.1468V17.0963H63.2377V53.1468ZM63.2377 16.3481H0.749854V7.49442C0.749854 5.78604 2.14958 4.38941 3.86175 4.38941H15.8719V8.1678H16.7467V4.38941H47.2408V8.1678H48.1156V4.38941H60.1258C61.8379 4.38941 63.2377 5.78604 63.2377 7.49442V16.3481Z" fill="#BD944E"/>
</g>
</svg>
