<svg width="18" height="18" viewBox="0 0 18 18" fill="none" xmlns="http://www.w3.org/2000/svg">
<path d="M0.666668 8.99999C0.666668 6.78985 1.54464 4.67024 3.10744 3.10743C4.67025 1.54463 6.78986 0.666656 9 0.666656C10.0944 0.666656 11.178 0.882205 12.189 1.30099C13.2001 1.71978 14.1187 2.33361 14.8926 3.10743C15.6664 3.88125 16.2802 4.79991 16.699 5.81096C17.1178 6.82201 17.3333 7.90564 17.3333 8.99999C17.3333 11.2101 16.4554 13.3297 14.8926 14.8925C13.3298 16.4553 11.2101 17.3333 9 17.3333C7.90565 17.3333 6.82202 17.1178 5.81097 16.699C4.79993 16.2802 3.88127 15.6664 3.10744 14.8925C1.54464 13.3297 0.666668 11.2101 0.666668 8.99999ZM7.33333 13.1667L11.5 8.99999L7.33333 4.83332V13.1667Z" fill="#102A66"/>
</svg>
