<svg width="18" height="18" viewBox="0 0 18 18" fill="none" xmlns="http://www.w3.org/2000/svg">
<path d="M17.3333 8.99999C17.3333 11.2101 16.4553 13.3297 14.8925 14.8925C13.3297 16.4553 11.2101 17.3333 8.99999 17.3333C7.90564 17.3333 6.82201 17.1178 5.81096 16.699C4.79991 16.2802 3.88125 15.6664 3.10743 14.8925C1.54463 13.3297 0.666656 11.2101 0.666656 8.99999C0.666656 6.78985 1.54463 4.67024 3.10743 3.10743C4.67024 1.54463 6.78985 0.666656 8.99999 0.666656C10.0943 0.666656 11.178 0.882205 12.189 1.30099C13.2001 1.71978 14.1187 2.33361 14.8925 3.10743C15.6664 3.88125 16.2802 4.79991 16.699 5.81096C17.1178 6.82201 17.3333 7.90564 17.3333 8.99999ZM10.6667 4.83332L6.49999 8.99999L10.6667 13.1667V4.83332Z" fill="#102A66" fill-opacity="1"/>
</svg>
