<svg xmlns="http://www.w3.org/2000/svg" viewBox="0 0 28 22"><defs><style>.cls-1{isolation:isolate;}.cls-2{fill:#ffffff;}</style></defs><g id="Laag_2" data-name="Laag 2"><g id="Isolatiemodus"><g class="cls-1"><g class="cls-1"><path class="cls-2" d="M3,6A3,3,0,1,1,6,3,3,3,0,0,1,3,6Zm0,8a3,3,0,1,1,3-3A3,3,0,0,1,3,14Zm0,8a3,3,0,1,1,3-3A3,3,0,0,1,3,22ZM28,4.5a.51.51,0,0,1-.5.5H8.5A.51.51,0,0,1,8,4.5v-3A.51.51,0,0,1,8.5,1h19a.51.51,0,0,1,.5.5Zm0,8a.51.51,0,0,1-.5.5H8.5a.51.51,0,0,1-.5-.5v-3A.51.51,0,0,1,8.5,9h19a.51.51,0,0,1,.5.5Zm0,8a.51.51,0,0,1-.5.5H8.5a.51.51,0,0,1-.5-.5v-3a.51.51,0,0,1,.5-.5h19a.51.51,0,0,1,.5.5Z"/></g></g></g></g></svg>