<?xml version="1.0" encoding="utf-8"?>
<!-- Generator: Adobe Illustrator 27.8.1, SVG Export Plug-In . SVG Version: 6.00 Build 0)  -->
<svg version="1.1" id="Layer_1" xmlns="http://www.w3.org/2000/svg" xmlns:xlink="http://www.w3.org/1999/xlink" x="0px" y="0px"
	 viewBox="0 0 87.58 14.65" style="enable-background:new 0 0 87.58 14.65;" xml:space="preserve">
<style type="text/css">
	.st0{fill:#BC934D;}
</style>
<g>
	<path class="st0" d="M15.29,5.68H9.55L7.79,0.33L6.03,5.68H0.29l4.69,3.29l-1.83,5.35l4.63-3.32l4.63,3.32l-1.83-5.35L15.29,5.68z"
		/>
	<path class="st0" d="M33.29,5.68h-5.74l-1.76-5.35l-1.76,5.35h-5.74l4.69,3.29l-1.83,5.35l4.63-3.32l4.63,3.32l-1.83-5.35
		L33.29,5.68z"/>
	<path class="st0" d="M51.29,5.68h-5.74l-1.76-5.35l-1.76,5.35h-5.74l4.69,3.29l-1.83,5.35l4.63-3.32l4.63,3.32l-1.83-5.35
		L51.29,5.68z"/>
	<path class="st0" d="M69.29,5.68h-5.74l-1.76-5.35l-1.76,5.35h-5.74l4.69,3.29l-1.83,5.35l4.63-3.32l4.63,3.32l-1.83-5.35
		L69.29,5.68z"/>
	<path class="st0" d="M87.29,5.68h-5.74l-1.76-5.35l-1.76,5.35h-5.74l4.69,3.29l-1.83,5.35l4.63-3.32l4.63,3.32l-1.83-5.35
		L87.29,5.68z M80.37,10.2l-0.58-0.42V3.53l0.81,2.47l0.23,0.69h3.29l-2.1,1.47L81.4,8.59l0.24,0.71l0.82,2.4L80.37,10.2z"/>
</g>
</svg>
