<?xml version="1.0" encoding="utf-8"?>
<!-- Generator: Adobe Illustrator 27.0.0, SVG Export Plug-In . SVG Version: 6.00 Build 0)  -->
<svg version="1.1" id="Layer_1" xmlns="http://www.w3.org/2000/svg" xmlns:xlink="http://www.w3.org/1999/xlink" x="0px" y="0px"
	 viewBox="0 0 26 22.2" style="enable-background:new 0 0 26 22.2;" xml:space="preserve">
<style type="text/css">
	.st0{fill:#102A66;}
</style>
<path class="st0" d="M19.9,0.1C19.5,0,19.1,0,18.7,0c-1.9,0-3.8,0.8-5.2,2.1L13,2.7l-0.6-0.6C11,0.8,9.1,0,7.2,0
	C6.8,0,6.5,0,6.1,0.1C2.6,0.7,0,3.7,0,7.2v0.3c0,2.1,0.9,4.1,2.4,5.5l9.2,8.5c0.4,0.4,0.9,0.6,1.4,0.6s1-0.2,1.4-0.6l9.2-8.5
	c1.5-1.4,2.4-3.5,2.4-5.5V7.2C26,3.8,23.4,0.7,19.9,0.1z"/>
</svg>
