<svg xmlns="http://www.w3.org/2000/svg" viewBox="0 0 696.46 69.38"><defs><style>.cls-1{fill:#212f57;}</style></defs><g id="Laag_2" data-name="Laag 2"><g id="Laag_1-2" data-name="Laag 1"><path class="cls-1" d="M0,56.36V49.29H6.94V9.92H0V2.85H25.56L37,35.87h.24L48,2.85H73.07V9.92H66V49.29h7.1v7.07H46.13V49.29h6.69V11.63H52.1L36.45,56.44h-5.4L14.84,11.63h-.73V49.29h6.7v7.07Z"/><path class="cls-1" d="M89.28,57.1A12.34,12.34,0,0,1,81,54.33,9.16,9.16,0,0,1,77.74,47a9,9,0,0,1,2.66-6.59q3.8-3.83,15.65-5.37a34,34,0,0,0,4.11-.73,1,1,0,0,0,.73-1V30c0-2.38-.57-4.09-1.69-5.12S96.32,23.34,94,23.34a12.1,12.1,0,0,0-4.84,1,4.89,4.89,0,0,1,1.94,4.15A4.64,4.64,0,0,1,89.44,32a5.89,5.89,0,0,1-4.12,1.47,6,6,0,0,1-4.51-1.63,5.51,5.51,0,0,1-1.61-4.06q0-5,5.2-7.65a27.41,27.41,0,0,1,12.7-2.68q15.41,0,15.4,13.25V48.07a2.51,2.51,0,0,0,.49,1.79,2.09,2.09,0,0,0,1.53.48c1,0,1.85-1.21,2.5-3.66L121,48c-.75,3.14-1.92,5.45-3.51,6.91a10.24,10.24,0,0,1-12.42.2A8.93,8.93,0,0,1,102.18,49h-.4Q98.39,57.1,89.28,57.1Zm5.48-6.92a5.24,5.24,0,0,0,4.44-2.32,9.91,9.91,0,0,0,1.69-6V38.14c-.22.06-.69.14-1.41.25s-1.47.24-2.22.4c-2.8.49-4.75,1.23-5.85,2.2a5.46,5.46,0,0,0-1.65,4.31A5,5,0,0,0,91,48.8,4.8,4.8,0,0,0,94.76,50.18Z"/><path class="cls-1" d="M122,56.36V49.61h5.56V25.05H122V18.3h16.61v9.76a17.39,17.39,0,0,1,4.76-7.89,10.33,10.33,0,0,1,7-2.68A7.4,7.4,0,0,1,158.07,25a7.14,7.14,0,0,1-1.82,5,5.8,5.8,0,0,1-4.47,2,6.63,6.63,0,0,1-4.52-1.54,5.32,5.32,0,0,1-1.77-4.23,1.55,1.55,0,0,1,0-.29,2.47,2.47,0,0,0,0-.36,5.57,5.57,0,0,0-3.51,2.07,13.11,13.11,0,0,0-2.7,5.25V49.61h7v6.75Z"/><path class="cls-1" d="M163.31,56.93V7.16h-5.49V.24h17.34V25.86q4-8.46,12-8.45a13,13,0,0,1,9.6,3.9q5.16,5.21,5.16,15.94,0,10.41-5.4,15.86a13.64,13.64,0,0,1-10.09,4.07q-9.1,0-13.22-8l-3.71,7.72Zm19.19-6.34q6.78,0,6.78-13.18Q189.28,25,182.5,25a6.59,6.59,0,0,0-5.93,3.66A18.41,18.41,0,0,0,174.44,38a17.26,17.26,0,0,0,2.13,9.15A6.64,6.64,0,0,0,182.5,50.59Z"/><path class="cls-1" d="M207.26,57.1v-14h6.21a22.86,22.86,0,0,0,5.85,6.3A11.33,11.33,0,0,0,226,51.73q4.92,0,4.92-3.91A3.73,3.73,0,0,0,229,44.45a32.21,32.21,0,0,0-7.66-2.65Q214.2,39.94,211,37.29a9.33,9.33,0,0,1-3.19-7.6,11.53,11.53,0,0,1,3.8-8.71,13.86,13.86,0,0,1,9.92-3.57q6.93,0,10.8,4.71l1.29-4.55h6.29v13h-6.21q-4.92-7.72-10.8-7.73c-3.18,0-4.76,1.22-4.76,3.66A3.46,3.46,0,0,0,220,29.65a35.29,35.29,0,0,0,7.46,2.56q7,1.88,10.41,4.51c2.25,1.76,3.38,4.41,3.38,7.93a11.8,11.8,0,0,1-3.83,8.87q-3.83,3.66-10.44,3.66-7.74,0-12.26-5.21l-1.29,5.13Z"/><path class="cls-1" d="M246.21,3.66h24.28V6.91h-9.76v46.2h19.68c1.55,0,2.66-1,3.3-3s1.51-6.55,2.58-13.7h2.58V56.36H246.21V53.11h8.87V6.91h-8.87Z"/><path class="cls-1" d="M294.84,56.36V53.11h6.94V23.59h-6.94V20.33h12.1V53.11h6.94v3.25Zm9-44.73a3.9,3.9,0,0,1-2.82-1.1,3.85,3.85,0,0,1-1.13-2.89,4,4,0,0,1,1.13-2.88,3.74,3.74,0,0,1,2.82-1.18,3.66,3.66,0,0,1,2.67,1.14,3.87,3.87,0,0,1,1.12,2.84,4.08,4.08,0,0,1-1.08,2.93A3.6,3.6,0,0,1,303.87,11.63Z"/><path class="cls-1" d="M318.31,56.36V53.11h6.13V23.59H317V20.33h7.42V17.49q0-9.19,4-13.34A13.52,13.52,0,0,1,338.63,0a12.73,12.73,0,0,1,7,1.87,5.73,5.73,0,0,1,2.94,5,4.32,4.32,0,0,1-1.09,3,3.36,3.36,0,0,1-2.62,1.22,3.62,3.62,0,0,1-2.74-1,3.57,3.57,0,0,1-1-2.57,3.69,3.69,0,0,1,.65-2.15A3.21,3.21,0,0,1,343,4.23q-1.38-1.47-4.68-1.47c-3,0-5.22,1.1-6.61,3.3s-2.1,5.92-2.1,11.18v3.09h10.81v3.26H329.6V53.11h8.55v3.25Z"/><path class="cls-1" d="M375.57,38.55H350.08q.09,7.16,3.31,11.06a10.46,10.46,0,0,0,8.47,3.91q7.65,0,10.48-7.4h3A16,16,0,0,1,370,54.29a14.22,14.22,0,0,1-8.91,2.81,15.29,15.29,0,0,1-12-5.09q-4.56-5.09-4.56-13.3a19.8,19.8,0,0,1,4.84-13.66,15.08,15.08,0,0,1,11.69-5.45A12.35,12.35,0,0,1,372,25.17,22.54,22.54,0,0,1,375.57,38.55Zm-14.68-16a9.08,9.08,0,0,0-7.18,3.41,16.52,16.52,0,0,0-3.46,9.36h19.83q-.4-6.18-2.78-9.48A7.52,7.52,0,0,0,360.89,22.53Z"/><path class="cls-1" d="M382.42,57.1V43.43h2.66q3.07,10.82,12.34,10.82a9.05,9.05,0,0,0,5.65-1.67,5.68,5.68,0,0,0,0-8.95c-1.45-1.05-4-2.1-7.74-3.13-4.47-1.24-7.62-2.67-9.48-4.27a8,8,0,0,1-2.78-6.38,9.41,9.41,0,0,1,3.35-7.2,12,12,0,0,1,8.42-3q6.86,0,9.76,4.47l1-4.47h2.58V32h-2.5a20.54,20.54,0,0,0-4.4-7.28,9,9,0,0,0-6.41-2.23,8,8,0,0,0-5,1.58,5,5,0,0,0-2.05,4.11A5.18,5.18,0,0,0,390,32.49a23.49,23.49,0,0,0,7.38,3.13q7,2,9.68,4.27a8.1,8.1,0,0,1,2.66,6.55,9.93,9.93,0,0,1-3.35,7.48,12.06,12.06,0,0,1-8.66,3.18q-7.59,0-11.78-5.29L385,57.1Z"/><path class="cls-1" d="M421.21,10.25l5.17-.82v10.9h11.69v3.26H426.38V47.5c0,3.9,1.55,5.85,4.67,5.85a4.86,4.86,0,0,0,3.71-1.54,13.45,13.45,0,0,0,2.58-5l2.34.81q-2.58,9.51-9.76,9.52a8.11,8.11,0,0,1-6.49-2.57c-1.48-1.7-2.22-4.16-2.22-7.36V23.59h-7.42V20.33h7.42Z"/><path class="cls-1" d="M445.73,59.78a3.53,3.53,0,0,1,2.62,1,3.48,3.48,0,0,1,1,2.56,4.68,4.68,0,0,1-1,3,6.46,6.46,0,0,0,4.88-1.91q2.46-2.16,4.8-8l-12.9-32.85h-4.84V20.33h16.93v3.26H451l9.92,26.59L471,23.59h-5.8V20.33h13.54v3.26H474.6l-12.18,30.9q-3.23,8.22-6.69,11.55a10.86,10.86,0,0,1-7.66,3.34,7.07,7.07,0,0,1-4.72-1.47,4.8,4.8,0,0,1-.56-6.83A3.76,3.76,0,0,1,445.73,59.78Z"/><path class="cls-1" d="M480.25,56.36V53.11h6.93V3.66h-6.93V.49h12.09V53.11h6.94v3.25Z"/><path class="cls-1" d="M535.17,38.55H509.68q.09,7.16,3.31,11.06a10.46,10.46,0,0,0,8.47,3.91q7.65,0,10.48-7.4h3a15.91,15.91,0,0,1-5.36,8.17,14.24,14.24,0,0,1-8.91,2.81,15.32,15.32,0,0,1-12-5.09q-4.55-5.09-4.55-13.3A19.8,19.8,0,0,1,509,25.05a15.08,15.08,0,0,1,11.69-5.45,12.35,12.35,0,0,1,10.93,5.57A22.61,22.61,0,0,1,535.17,38.55Zm-14.68-16a9.08,9.08,0,0,0-7.18,3.41,16.59,16.59,0,0,0-3.47,9.36h19.84q-.4-6.18-2.78-9.48A7.52,7.52,0,0,0,520.49,22.53Z"/><path class="cls-1" d="M549.32,56.32a4.07,4.07,0,0,1-5.73,0,4.14,4.14,0,0,1,0-5.77,4.07,4.07,0,0,1,5.73,0,4.14,4.14,0,0,1,0,5.77Z"/><path class="cls-1" d="M572.75,57.1a14.83,14.83,0,0,1-11.45-5.05,18.31,18.31,0,0,1-4.6-12.85q0-8.7,4.8-14.15t12.86-5.45a14.26,14.26,0,0,1,9.48,3.29c2.6,2.2,3.91,4.52,3.91,7a5.27,5.27,0,0,1-1.17,3.46,3.76,3.76,0,0,1-3,1.42,3.7,3.7,0,0,1-2.86-1.18,4.2,4.2,0,0,1,2-6.87,9.8,9.8,0,0,0-8.47-4.15A10.23,10.23,0,0,0,565.49,27q-3.22,4.44-3.23,11.59,0,6.91,3.15,11a10.16,10.16,0,0,0,8.47,4.07q7.65,0,11.21-8.79h3.06a16.59,16.59,0,0,1-5.6,9.15A15.4,15.4,0,0,1,572.75,57.1Z"/><path class="cls-1" d="M611,57.1a15.77,15.77,0,0,1-12-5.05q-4.77-5-4.76-13.34T599.12,25A15.51,15.51,0,0,1,611,19.6a15.82,15.82,0,0,1,12,5.08q4.8,5.09,4.8,13.38t-4.92,13.71A15.57,15.57,0,0,1,611,57.1Zm.25-2.93A9.56,9.56,0,0,0,619,50.06q3.18-4.11,3.18-11.75T618.8,26.6a10.19,10.19,0,0,0-8.07-4.07A9.54,9.54,0,0,0,603,26.64q-3.19,4.11-3.19,11.83t3.39,11.67A10.23,10.23,0,0,0,611.22,54.17Z"/><path class="cls-1" d="M667.67,29.52q5.64-9.91,13.14-9.92,9.53,0,9.52,11.63V53.11h6.13v3.25H679.93V53.11h5.24v-19q0-6.51-2-8.54a6.21,6.21,0,0,0-4.6-1.55q-4.18,0-7.5,4t-3.3,7.68V53.11H673v3.25H657.34V53.11h5.25v-19c0-4.34-.68-7.19-2-8.54A6.21,6.21,0,0,0,656,24q-4.19,0-7.5,4t-3.3,7.68V53.11h5.24v3.25H633.88V53.11H640V23.59h-6.13V20.33H645v9.36q5.72-10.1,13.22-10.09Q666.95,19.6,667.67,29.52Z"/></g></g></svg>