<svg width="17" height="16" viewBox="0 0 17 16" fill="none" xmlns="http://www.w3.org/2000/svg">
<path d="M15.3104 14.3204C15.1552 14.3204 15.0018 14.2879 14.8599 14.225C14.7181 14.1622 14.5909 14.0703 14.4867 13.9553C14.1393 13.6109 13.8087 13.6227 13.4407 13.9553C12.863 14.472 12.4773 14.4631 11.8662 13.9357C11.5129 13.6306 11.2049 13.6345 10.8546 13.9435C10.2641 14.47 9.87738 14.471 9.28006 13.9435C8.90907 13.6168 8.59122 13.6345 8.23105 13.9612C7.67407 14.4611 7.26175 14.4533 6.69592 13.9553C6.33182 13.6326 6.01692 13.6188 5.6479 13.9494C5.06828 14.468 4.68057 14.4602 4.0734 13.9337C3.72111 13.6276 3.4131 13.6286 3.06277 13.9337C2.46742 14.4602 2.0856 14.4552 1.48828 13.9406C1.34311 13.8092 1.1648 13.7201 0.972629 13.6828C0.947262 13.6813 0.922452 13.6747 0.899684 13.6634C0.876916 13.6521 0.856658 13.6364 0.840122 13.6171C0.823585 13.5978 0.81111 13.5754 0.803443 13.5511C0.795775 13.5269 0.793073 13.5014 0.795498 13.4761C0.816163 13.3305 0.937203 13.3088 1.06021 13.3098C1.34756 13.3098 1.56405 13.4613 1.75496 13.6552C2.10036 14.0065 2.42904 13.9986 2.79708 13.6641C3.35602 13.1543 3.78606 13.1602 4.37157 13.6778C4.72386 13.9898 5.02794 13.9908 5.37826 13.6778C5.95787 13.1612 6.38692 13.1563 6.95276 13.666C7.3208 13.9977 7.63471 13.9908 7.99783 13.6582C8.53611 13.1661 8.98779 13.176 9.53788 13.6463C9.98366 14.0282 10.1559 14.0262 10.6115 13.6345C11.1321 13.1858 11.5956 13.1848 12.1201 13.6345C12.5904 14.038 12.742 14.035 13.2291 13.6178C13.7162 13.2006 14.2013 13.1937 14.7052 13.6178C15.209 14.0419 15.331 14.0439 15.8496 13.5971C16.0602 13.4171 16.2846 13.2881 16.57 13.3157C16.6556 13.3246 16.7412 13.361 16.7451 13.4594C16.7451 13.5164 16.7107 13.6237 16.6822 13.6276C16.1901 13.6867 15.949 14.1994 15.4826 14.3017C15.4127 14.3096 15.3468 14.3155 15.3104 14.3204Z" fill="#BD944E"/>
<path d="M10.0693 14.3627C9.81932 14.3627 9.57036 14.2299 9.26727 13.9632C8.91399 13.6532 8.6109 13.6582 8.2527 13.9799C7.68588 14.4897 7.26077 14.4877 6.67821 13.975C6.31903 13.6562 6.01495 13.6542 5.66364 13.9691C5.07813 14.4926 4.67269 14.4887 4.05667 13.9534C3.71422 13.6582 3.42294 13.6582 3.08049 13.9583C2.47627 14.4917 2.0856 14.4936 1.47352 13.9652C1.33201 13.8317 1.15564 13.7409 0.964758 13.7034C0.936186 13.7012 0.908348 13.6933 0.882885 13.6801C0.857423 13.667 0.834853 13.6489 0.816507 13.6269C0.798161 13.6049 0.784413 13.5794 0.776072 13.552C0.767731 13.5246 0.764968 13.4957 0.767946 13.4672C0.791563 13.298 0.93622 13.2773 1.06316 13.2783C1.38889 13.2783 1.61621 13.4692 1.77661 13.6326C2.10823 13.9691 2.41821 13.9711 2.78232 13.6404C3.34717 13.1258 3.79885 13.1297 4.39125 13.6542C4.73272 13.9563 5.02302 13.9563 5.3635 13.6542C5.94902 13.1317 6.4007 13.1277 6.97146 13.6424C7.32473 13.9612 7.62684 13.9593 7.9811 13.6345C8.51938 13.1425 8.98976 13.1425 9.5556 13.6227C9.99252 13.9977 10.146 13.9957 10.5948 13.6109C11.1271 13.1514 11.6034 13.1514 12.1368 13.6109C12.5954 14.0045 12.7371 14.0045 13.2124 13.5942C13.7172 13.1622 14.2092 13.1632 14.719 13.5942C15.211 14.0114 15.3232 14.0095 15.83 13.5735C16.0051 13.4239 16.2462 13.2557 16.57 13.2862C16.692 13.298 16.7668 13.359 16.7668 13.4545C16.7668 13.5096 16.7353 13.6424 16.6812 13.6513C16.4283 13.6818 16.2472 13.8313 16.0553 13.9898C15.8861 14.1305 15.7109 14.2752 15.4846 14.3253C15.44 14.3347 15.395 14.3416 15.3497 14.346L15.3153 14.3509H15.3025C14.9866 14.3509 14.7298 14.2358 14.47 13.979C14.1364 13.6493 13.8244 13.6483 13.4594 13.979C12.8758 14.4995 12.4704 14.4946 11.8514 13.9593C11.5099 13.6641 11.2177 13.6641 10.8752 13.9671C10.5692 14.2289 10.3192 14.3627 10.0693 14.3627ZM6.16945 13.6828C6.34756 13.6828 6.52666 13.7674 6.71757 13.9357C7.27652 14.4326 7.66915 14.4346 8.21826 13.9416C8.59515 13.6021 8.92974 13.5971 9.30072 13.9238C9.8823 14.4356 10.2562 14.4346 10.8388 13.9238C11.2 13.605 11.5277 13.6021 11.8839 13.915C12.4842 14.4346 12.8581 14.4395 13.422 13.9357C13.8087 13.5903 14.1521 13.5912 14.5044 13.9357C14.6047 14.0477 14.7273 14.1375 14.8645 14.1992C15.0016 14.2609 15.1502 14.2932 15.3005 14.2939H15.3074H15.3419C15.3851 14.2895 15.4282 14.2829 15.4708 14.2742C15.6853 14.226 15.8487 14.0921 16.0209 13.9494C16.2098 13.793 16.4047 13.6306 16.6733 13.5991C16.6985 13.556 16.7124 13.5073 16.7136 13.4574C16.7136 13.3708 16.629 13.3452 16.5621 13.3393C16.322 13.3157 16.1124 13.3984 15.8615 13.6139C15.335 14.0656 15.1923 14.0685 14.6806 13.6345C14.1885 13.2153 13.729 13.2153 13.2419 13.6345C12.7548 14.0537 12.5757 14.0606 12.0984 13.6513C11.5877 13.2143 11.133 13.2153 10.6223 13.6513C10.1569 14.0518 9.96989 14.0537 9.51427 13.6631C8.96614 13.1937 8.53021 13.1966 8.00866 13.6739C7.6357 14.0164 7.3021 14.0183 6.92619 13.6818C6.37216 13.1838 5.95591 13.1897 5.38712 13.6936C5.02794 14.0144 4.70714 14.0144 4.34599 13.6936C3.7713 13.1848 3.35405 13.1809 2.80593 13.6798C2.42215 14.0291 2.0797 14.0262 1.72937 13.67C1.50796 13.4367 1.29934 13.3324 1.06316 13.3305H1.05431C0.902762 13.3305 0.835846 13.3728 0.821085 13.4751C0.806324 13.5775 0.895873 13.6375 0.976566 13.6522C1.17726 13.6911 1.36286 13.7859 1.51189 13.9258C2.10233 14.4316 2.47234 14.4306 3.05195 13.9189C3.41211 13.6011 3.73488 13.5991 4.09604 13.914C4.69336 14.4336 5.0673 14.4375 5.63412 13.9298C5.77548 13.7835 5.96643 13.6954 6.16945 13.6828Z" fill="#BD944E"/>
<path d="M15.3104 15.7335C15.1552 15.7335 15.0018 15.701 14.8599 15.6381C14.7181 15.5753 14.5909 15.4834 14.4867 15.3684C14.1393 15.024 13.8087 15.0358 13.4407 15.3684C12.863 15.8851 12.4773 15.8762 11.8662 15.3488C11.5129 15.0427 11.2049 15.0476 10.8546 15.3566C10.2641 15.8831 9.87738 15.8841 9.28006 15.3566C8.90907 15.0299 8.59122 15.0476 8.23105 15.3744C7.67407 15.8743 7.26175 15.8713 6.69592 15.3684C6.33182 15.0457 6.01692 15.0319 5.6479 15.3625C5.06828 15.8802 4.68057 15.8733 4.0734 15.3468C3.72111 15.0408 3.4131 15.0417 3.06277 15.3517C2.46742 15.8782 2.0856 15.8733 1.48828 15.3586C1.34235 15.2226 1.16141 15.1299 0.965741 15.0909C0.940421 15.0893 0.91568 15.0827 0.892977 15.0713C0.870275 15.06 0.850072 15.0443 0.833561 15.025C0.81705 15.0057 0.804566 14.9834 0.796845 14.9592C0.789125 14.935 0.786325 14.9096 0.78861 14.8843C0.809276 14.7387 0.930315 14.717 1.05332 14.718C1.34067 14.718 1.55716 14.8695 1.74807 15.0634C2.09347 15.4147 2.42215 15.4068 2.79019 15.0722C3.34913 14.5625 3.77917 14.5684 4.36468 15.086C4.71698 15.398 5.02105 15.399 5.37138 15.086C5.95099 14.5704 6.38004 14.5655 6.94587 15.0752C7.31391 15.4068 7.62782 15.3999 7.99094 15.0673C8.52922 14.5753 8.98091 14.5842 9.531 15.0555C9.97677 15.4373 10.149 15.4354 10.6046 15.0437C11.1252 14.595 11.5887 14.594 12.1132 15.0437C12.5835 15.4472 12.7351 15.4442 13.2222 15.027C13.7093 14.6097 14.1945 14.6029 14.6983 15.027C15.2021 15.4511 15.3242 15.4531 15.8428 15.0063C16.0533 14.8262 16.2777 14.6973 16.5631 14.7249C16.6487 14.7337 16.7343 14.7701 16.7382 14.8685C16.7382 14.9256 16.7038 15.0329 16.6753 15.0368C16.1832 15.0959 15.9421 15.6086 15.4757 15.7109C15.4127 15.7227 15.3468 15.7286 15.3104 15.7335Z" fill="#BD944E"/>
<path d="M10.0693 15.7758C9.81932 15.7758 9.57036 15.643 9.26727 15.3753C8.91399 15.0663 8.6109 15.0713 8.2527 15.393C7.68588 15.9028 7.26077 15.9008 6.67821 15.393C6.31903 15.0742 6.01495 15.0722 5.66364 15.3871C5.07813 15.9107 4.67269 15.9067 4.05667 15.3714C3.71422 15.0762 3.42294 15.0762 3.08049 15.3714C2.47627 15.9048 2.0856 15.9067 1.47352 15.3783C1.33201 15.2448 1.15564 15.1541 0.964758 15.1165C0.936186 15.1143 0.908348 15.1064 0.882885 15.0933C0.857423 15.0801 0.834853 15.062 0.816507 15.04C0.798161 15.018 0.784413 14.9925 0.776072 14.9651C0.767731 14.9377 0.764968 14.9089 0.767946 14.8804C0.791563 14.7111 0.93622 14.6924 1.06316 14.6914C1.38889 14.6914 1.61621 14.8823 1.77661 15.0457C2.10823 15.3822 2.41821 15.3842 2.78232 15.0526C3.34717 14.5389 3.79885 14.5418 4.39125 15.0673C4.73272 15.3694 5.02302 15.3694 5.3635 15.0673C5.94902 14.5438 6.4007 14.5409 6.97146 15.0555C7.32473 15.3743 7.62684 15.3724 7.9811 15.0476C8.51938 14.5556 8.98976 14.5556 9.5556 15.0358C9.99252 15.4108 10.146 15.4088 10.5948 15.024C11.1271 14.5645 11.6034 14.5635 12.1368 15.024C12.5954 15.4176 12.7371 15.4176 13.2124 15.0073C13.7172 14.5753 14.2092 14.5753 14.719 15.0073C15.211 15.4245 15.3232 15.4226 15.83 14.9866C16.0051 14.8371 16.2462 14.6688 16.57 14.6993C16.692 14.7111 16.7668 14.7721 16.7668 14.8676C16.7668 14.9227 16.7353 15.0555 16.6812 15.0644C16.4283 15.0949 16.2472 15.2445 16.0553 15.4029C15.8861 15.5436 15.7109 15.6883 15.4846 15.7385C15.44 15.7478 15.395 15.7547 15.3497 15.7591H15.3153H15.3025C14.9866 15.7591 14.7298 15.644 14.47 15.3871C14.1364 15.0575 13.8244 15.0565 13.4594 15.3871C12.8758 15.9077 12.4704 15.9028 11.8514 15.3675C11.5099 15.0722 11.2177 15.0722 10.8752 15.3753C10.5692 15.642 10.3192 15.7758 10.0693 15.7758ZM6.16945 15.0959C6.34756 15.0959 6.52666 15.1805 6.71757 15.3488C7.27652 15.8408 7.66915 15.8477 8.21826 15.3547C8.59515 15.0152 8.92974 15.0102 9.30072 15.337C9.8823 15.8487 10.2562 15.8477 10.8388 15.337C11.2 15.0181 11.5277 15.0152 11.8839 15.3281C12.4842 15.8477 12.8581 15.8526 13.422 15.3488C13.8087 15.0034 14.1521 15.0043 14.5044 15.3488C14.6047 15.4608 14.7274 15.5504 14.8645 15.612C15.0017 15.6735 15.1502 15.7055 15.3005 15.706H15.3074H15.3419C15.3851 15.7016 15.4282 15.695 15.4708 15.6863C15.6853 15.6381 15.8487 15.5042 16.0209 15.3616C16.2098 15.2051 16.4047 15.0427 16.6733 15.0102C16.6986 14.9676 16.7125 14.9191 16.7136 14.8695C16.7136 14.7829 16.629 14.7573 16.5621 14.7514C16.322 14.7278 16.1124 14.8105 15.8615 15.026C15.335 15.4777 15.1923 15.4806 14.6806 15.0467C14.1885 14.6274 13.729 14.6274 13.2419 15.0467C12.7548 15.4659 12.5767 15.4728 12.0984 15.0634C11.5877 14.6265 11.133 14.6274 10.6223 15.0634C10.1569 15.4639 9.96989 15.4659 9.51427 15.0752C8.96614 14.6058 8.53021 14.6088 8.00866 15.086C7.6357 15.4285 7.3021 15.4304 6.92619 15.0939C6.37216 14.596 5.95591 14.6019 5.38712 15.1057C5.02794 15.4265 4.70615 15.4265 4.34599 15.1057C3.7713 14.5969 3.35405 14.593 2.80593 15.0919C2.42215 15.4413 2.0797 15.4383 1.72937 15.0821C1.50796 14.8498 1.29934 14.7455 1.06316 14.7436H1.05431C0.902762 14.7436 0.835846 14.7859 0.821085 14.8872C0.819207 14.9092 0.821776 14.9314 0.828637 14.9523C0.835499 14.9733 0.846513 14.9927 0.861023 15.0093C0.875533 15.0259 0.893241 15.0394 0.913092 15.0491C0.932943 15.0587 0.95453 15.0642 0.976566 15.0654C1.17726 15.1042 1.36286 15.199 1.51189 15.3389C2.10233 15.8447 2.47234 15.8437 3.05195 15.332C3.41211 15.0142 3.7339 15.0122 4.09604 15.332C4.69336 15.8516 5.0673 15.8556 5.63412 15.3478C5.7747 15.1997 5.96574 15.1098 6.16945 15.0959Z" fill="#BD944E"/>
<path d="M6.02282 0.941154C6.0819 0.986602 6.13482 1.03953 6.18027 1.0986C6.39184 1.4509 6.59358 1.80811 6.80023 2.16237C6.87698 2.29424 6.89076 2.41626 6.73922 2.49695C6.60342 2.56879 6.51977 2.47235 6.46073 2.37198C6.24423 2.00394 6.02971 1.63393 5.82404 1.25999C5.73056 1.0868 5.81518 0.988389 6.02282 0.941154Z" fill="#BD944E"/>
<path d="M6.65065 2.54812C6.5365 2.54812 6.46959 2.43397 6.44007 2.38477C6.23341 2.03444 6.01397 1.65656 5.80338 1.2718C5.78226 1.2409 5.76876 1.20545 5.76397 1.16833C5.75918 1.13122 5.76324 1.0935 5.77583 1.05825C5.80227 1.01756 5.83782 0.983566 5.87966 0.958972C5.92151 0.934378 5.9685 0.919855 6.01692 0.91655H6.0307L6.04054 0.925406L6.08876 0.967721C6.13384 1.00065 6.17309 1.0409 6.20488 1.08679C6.34264 1.31706 6.47844 1.55324 6.61031 1.78055C6.68214 1.90455 6.753 2.02854 6.82483 2.15154C6.8493 2.18464 6.86658 2.22248 6.87556 2.26264C6.88455 2.30281 6.88503 2.3444 6.87699 2.38477C6.86698 2.41494 6.85079 2.4427 6.82944 2.46625C6.80808 2.48981 6.78205 2.50864 6.753 2.52155C6.7217 2.53897 6.68647 2.54811 6.65065 2.54812ZM6.01495 0.973625C5.97599 0.976092 5.93808 0.987276 5.90401 1.00635C5.86995 1.02543 5.8406 1.05191 5.81814 1.08384C5.80917 1.11186 5.8069 1.14159 5.81151 1.17065C5.81613 1.1997 5.8275 1.22727 5.84471 1.25113C6.05431 1.63491 6.27376 2.01181 6.48041 2.36213C6.55717 2.49301 6.62999 2.52745 6.72347 2.47825C6.74624 2.46842 6.76674 2.454 6.78367 2.43588C6.8006 2.41776 6.81361 2.39634 6.82188 2.37296C6.82789 2.33873 6.82688 2.30364 6.81893 2.26981C6.81098 2.23598 6.79625 2.20412 6.77563 2.17615C6.70281 2.05215 6.63196 1.92915 6.56012 1.80516C6.42924 1.57685 6.29246 1.34068 6.15567 1.11631C6.12652 1.07517 6.09098 1.03896 6.05038 1.00905L6.01495 0.973625Z" fill="#BD944E"/>
<path d="M11.7569 1.26097C11.5316 1.63098 11.2777 2.05708 11.013 2.47727C11.0003 2.49433 10.9842 2.50849 10.9656 2.51878C10.9471 2.52908 10.9265 2.53528 10.9053 2.53695C10.8842 2.53863 10.8629 2.53576 10.8429 2.52852C10.823 2.52127 10.8048 2.50984 10.7896 2.49498C10.7471 2.46756 10.7172 2.42438 10.7065 2.37493C10.6958 2.32548 10.7052 2.2738 10.7325 2.23125C10.9549 1.84255 11.1744 1.45188 11.4037 1.06711C11.4138 1.044 11.4286 1.02326 11.4472 1.00622C11.4658 0.989183 11.4878 0.976217 11.5117 0.968156C11.5356 0.960096 11.5609 0.957119 11.586 0.959417C11.6111 0.961714 11.6355 0.969235 11.6575 0.981498C11.7412 1.0248 11.7658 1.10155 11.7569 1.26097Z" fill="#BD944E"/>
<path d="M10.9038 2.56288C10.8565 2.56241 10.8108 2.54612 10.7739 2.51663C10.7268 2.48546 10.6938 2.43716 10.6819 2.38202C10.6699 2.32688 10.68 2.26926 10.7099 2.22142L10.8644 1.9508C11.0317 1.65558 11.2049 1.35249 11.381 1.05629C11.3925 1.03005 11.4094 1.00649 11.4304 0.987102C11.4515 0.967715 11.4764 0.952925 11.5035 0.943671C11.5307 0.934418 11.5594 0.930903 11.5879 0.933349C11.6165 0.935796 11.6442 0.944151 11.6694 0.957884C11.7746 1.01201 11.7914 1.11435 11.7825 1.26097V1.27377L11.6113 1.55619C11.4283 1.85928 11.2383 2.1732 11.0386 2.49006C11.0278 2.50772 11.0135 2.52296 10.9966 2.53482C10.9797 2.54667 10.9604 2.55489 10.9402 2.55895C10.9283 2.56185 10.916 2.56318 10.9038 2.56288ZM11.568 0.988389C11.5377 0.9911 11.5087 1.00158 11.4837 1.01883C11.4587 1.03607 11.4386 1.05948 11.4253 1.0868C11.2501 1.38201 11.077 1.68707 10.9087 1.98131L10.7552 2.25094C10.7331 2.28745 10.726 2.33109 10.7353 2.37272C10.7447 2.41435 10.7698 2.45076 10.8054 2.47432C10.8213 2.48802 10.84 2.49818 10.8602 2.50412C10.8804 2.51006 10.9016 2.51164 10.9225 2.50876C10.9362 2.50638 10.9492 2.50111 10.9608 2.49331C10.9723 2.48551 10.9821 2.47535 10.9894 2.46349C11.1862 2.14761 11.383 1.8337 11.5621 1.53061C11.6192 1.43548 11.6753 1.34298 11.7304 1.2531C11.7392 1.0868 11.7048 1.03562 11.6448 1.00512C11.6208 0.993737 11.5945 0.988013 11.568 0.988389Z" fill="#BD944E"/>
<path d="M3.82738 6.17734C3.63057 6.17734 3.43376 6.18324 3.23695 6.17734C3.11886 6.17143 2.99487 6.14191 2.99192 5.99037C2.98897 5.83882 3.10115 5.78568 3.22219 5.78371C3.65255 5.77584 4.08226 5.77584 4.51131 5.78371C4.63628 5.78371 4.74453 5.85949 4.7337 5.99922C4.72288 6.13896 4.59593 6.17537 4.47686 6.17931C4.26135 6.18619 4.04683 6.17931 3.83132 6.17931L3.82738 6.17734Z" fill="#BD944E"/>
<path d="M4.21216 6.2039H3.82739H3.8018H3.65223C3.51446 6.2039 3.37177 6.2039 3.23203 6.2039C3.1661 6.2039 2.96634 6.19209 2.9624 5.99135C2.96025 5.96249 2.96413 5.93351 2.97379 5.90623C2.98344 5.87896 2.99867 5.85399 3.01849 5.83291C3.07182 5.78336 3.14254 5.75684 3.2153 5.75911C3.65321 5.75124 4.08718 5.75124 4.50541 5.75911C4.54189 5.75844 4.57813 5.76516 4.61196 5.77885C4.64578 5.79255 4.67648 5.81295 4.70222 5.83882C4.72155 5.86104 4.73608 5.88703 4.74489 5.91514C4.75369 5.94326 4.75659 5.97289 4.75339 6.00217C4.74256 6.13207 4.64809 6.19898 4.47096 6.20686C4.38535 6.2039 4.2958 6.2039 4.21216 6.2039ZM3.85888 6.15076H4.01534C4.16394 6.15076 4.31843 6.15076 4.469 6.15076C4.61956 6.15076 4.69238 6.09664 4.70025 5.9943C4.70299 5.97194 4.70098 5.94926 4.69437 5.92772C4.68776 5.90619 4.67668 5.88629 4.66187 5.86932C4.64134 5.8497 4.6171 5.83437 4.59057 5.82424C4.56404 5.8141 4.53576 5.80935 4.50737 5.81028C4.09013 5.80241 3.65715 5.80241 3.21924 5.81028C3.15923 5.8083 3.10076 5.82943 3.05589 5.86932C3.04108 5.88563 3.02971 5.90475 3.02244 5.92555C3.01517 5.94634 3.01215 5.96838 3.01357 5.99036C3.01357 6.09664 3.08147 6.14486 3.234 6.15175C3.38653 6.15864 3.51446 6.15667 3.65124 6.15175H3.82739L3.85888 6.15076Z" fill="#BD944E"/>
<path d="M10.8624 9.45129C10.9254 9.48475 10.9864 9.49656 11.0081 9.53199C11.2551 9.94431 11.5001 10.3586 11.7373 10.7768C11.7563 10.815 11.7598 10.859 11.7472 10.8997C11.7345 10.9404 11.7067 10.9746 11.6694 10.9953C11.6501 11.0119 11.6275 11.024 11.6031 11.031C11.5787 11.038 11.553 11.0395 11.5279 11.0356C11.5028 11.0317 11.4789 11.0223 11.4578 11.0082C11.4367 10.9941 11.4189 10.9756 11.4056 10.954C11.1635 10.5603 10.9264 10.1569 10.704 9.74946C10.6164 9.58611 10.7493 9.51624 10.8624 9.45129Z" fill="#BD944E"/>
<path d="M11.5483 11.0602C11.5349 11.0617 11.5214 11.0617 11.508 11.0602C11.4821 11.0543 11.4577 11.0433 11.4362 11.0277C11.4148 11.0122 11.3967 10.9924 11.383 10.9697C11.0996 10.5042 10.8772 10.1214 10.6814 9.76324C10.583 9.58513 10.7316 9.49952 10.8398 9.43654L10.8624 9.42374L10.8752 9.43063C10.8947 9.44084 10.9148 9.45004 10.9353 9.45819C10.974 9.46747 11.0086 9.48926 11.0337 9.52018C11.3181 9.9945 11.5503 10.3901 11.7638 10.766C11.7862 10.8098 11.7908 10.8605 11.7767 10.9077C11.7626 10.9548 11.7308 10.9946 11.6881 11.0189C11.6468 11.0466 11.598 11.061 11.5483 11.0602ZM10.8595 9.47885C10.7286 9.55462 10.6548 9.61072 10.7227 9.73471C10.9195 10.0919 11.1409 10.4747 11.4243 10.9392C11.434 10.9559 11.4471 10.9703 11.4626 10.9817C11.4782 10.9931 11.496 11.001 11.5149 11.0051C11.5386 11.0095 11.5629 11.0088 11.5864 11.003C11.6098 10.9972 11.6317 10.9865 11.6507 10.9717C11.6825 10.9547 11.7065 10.926 11.7177 10.8917C11.7289 10.8574 11.7264 10.8201 11.7107 10.7877C11.4971 10.4117 11.2659 10.0171 10.9815 9.54282C10.9618 9.5232 10.9374 9.50897 10.9106 9.50148C10.9038 9.4946 10.8811 9.48771 10.8634 9.47885H10.8595Z" fill="#BD944E"/>
<path d="M8.9691 1.10451C8.9691 1.321 8.9691 1.53651 8.9691 1.75202C8.97142 1.77691 8.96832 1.802 8.96003 1.82557C8.95173 1.84915 8.93844 1.87065 8.92105 1.8886C8.90366 1.90655 8.88259 1.92052 8.85929 1.92956C8.83599 1.9386 8.81101 1.94249 8.78606 1.94096C8.76091 1.94316 8.73558 1.94007 8.71169 1.9319C8.68781 1.92372 8.66589 1.91065 8.64736 1.8935C8.62883 1.87636 8.61408 1.85553 8.60407 1.83235C8.59407 1.80917 8.58902 1.78416 8.58925 1.75891C8.58072 1.31084 8.58072 0.863416 8.58925 0.416653C8.58865 0.391003 8.5934 0.365508 8.60318 0.341789C8.61296 0.31807 8.62757 0.296646 8.64608 0.278877C8.66459 0.261109 8.6866 0.247384 8.71069 0.238576C8.73479 0.229768 8.76046 0.226069 8.78606 0.227714C8.94351 0.221809 8.97697 0.334976 8.98288 0.457984C8.98878 0.673493 8.98288 0.889002 8.98288 1.10451H8.9691Z" fill="#BD944E"/>
<path d="M8.7841 1.96654C8.75563 1.96873 8.72701 1.96497 8.70008 1.95549C8.67314 1.94601 8.64848 1.93103 8.62765 1.9115C8.60682 1.89197 8.59029 1.86831 8.5791 1.84204C8.56792 1.81577 8.56233 1.78746 8.56268 1.75891C8.55383 1.33182 8.55383 0.892934 8.56268 0.415666C8.56229 0.387468 8.56753 0.359475 8.57811 0.333334C8.58869 0.307193 8.60439 0.28343 8.62429 0.263444C8.64418 0.243457 8.66787 0.227649 8.69396 0.21695C8.72006 0.206251 8.74802 0.200875 8.77622 0.201141C8.80345 0.198193 8.83099 0.200959 8.85708 0.209262C8.88318 0.217565 8.90725 0.231222 8.92777 0.249359C8.97683 0.307049 9.00184 0.381384 8.99764 0.456996C8.99764 0.609525 8.99764 0.765007 8.99764 0.915568C8.99764 0.978548 8.99764 1.04153 8.99764 1.10451V1.13108C8.99764 1.1852 8.99764 1.23932 8.99764 1.29345C8.99764 1.44401 8.99764 1.59949 8.99764 1.753C9.0002 1.78169 8.99643 1.81059 8.98661 1.83766C8.97678 1.86473 8.96114 1.88931 8.94077 1.90968C8.92041 1.93004 8.89582 1.94569 8.86875 1.95552C8.84168 1.96534 8.81278 1.96911 8.7841 1.96654ZM8.78902 0.253296H8.77819C8.7563 0.252351 8.73446 0.2559 8.71399 0.263723C8.69353 0.271547 8.67488 0.283479 8.65921 0.298785C8.64354 0.314091 8.63116 0.332445 8.62285 0.352716C8.61455 0.372987 8.61048 0.394746 8.6109 0.41665C8.60401 0.892934 8.605 1.33182 8.6109 1.75792C8.61068 1.77977 8.61503 1.80141 8.62368 1.82147C8.63233 1.84153 8.64508 1.85955 8.66112 1.87438C8.67716 1.88922 8.69612 1.90053 8.71679 1.90758C8.73746 1.91464 8.75938 1.9173 8.78114 1.91537C8.80271 1.91664 8.82429 1.9132 8.84438 1.90527C8.86448 1.89735 8.8826 1.88514 8.8975 1.8695C8.91239 1.85385 8.9237 1.83515 8.93062 1.81469C8.93755 1.79423 8.93993 1.77251 8.93761 1.75103C8.93761 1.59851 8.93761 1.44401 8.93761 1.29443C8.93761 1.23145 8.93761 1.16749 8.93761 1.10451V1.07892C8.93761 1.0248 8.93761 0.969691 8.93761 0.914584C8.93761 0.765007 8.93761 0.610509 8.93761 0.458964C8.94174 0.428848 8.93986 0.398213 8.9321 0.368825C8.92433 0.339437 8.91082 0.311878 8.89234 0.287738C8.87827 0.275419 8.86189 0.266029 8.84415 0.260115C8.82641 0.254201 8.80766 0.251883 8.78902 0.253296Z" fill="#BD944E"/>
<path d="M13.6847 6.20882C13.4702 6.20882 13.2557 6.21571 13.0421 6.20882C13.013 6.21137 12.9836 6.20767 12.956 6.19798C12.9285 6.18828 12.9032 6.17281 12.8821 6.1526C12.861 6.13239 12.8444 6.10791 12.8335 6.08078C12.8225 6.05365 12.8175 6.0245 12.8187 5.99528C12.8187 5.84571 12.9417 5.81323 13.0638 5.81323C13.4751 5.81323 13.8874 5.81323 14.2997 5.81323C14.4149 5.81323 14.5438 5.8339 14.5467 5.99036C14.5467 6.16553 14.4169 6.20489 14.2781 6.20981C14.0813 6.21768 13.8845 6.20981 13.6877 6.20981L13.6847 6.20882Z" fill="#BD944E"/>
<path d="M14.038 6.23933H13.6847H13.6591H13.4948C13.3462 6.23933 13.1927 6.23933 13.0411 6.23933C13.0086 6.24203 12.9758 6.23775 12.945 6.22675C12.9142 6.21575 12.8861 6.19829 12.8627 6.17555C12.8392 6.15281 12.8208 6.12531 12.8088 6.0949C12.7968 6.06449 12.7915 6.03186 12.7932 5.99922C12.7932 5.86243 12.8916 5.79256 13.0638 5.79158C13.4574 5.79158 13.8756 5.79158 14.2997 5.79158C14.3804 5.79158 14.5694 5.79158 14.5723 5.9943C14.5723 6.2285 14.3529 6.23736 14.2771 6.24031C14.2013 6.24326 14.1187 6.23933 14.038 6.23933ZM13.7103 6.1852H13.8618C13.9986 6.1852 14.1393 6.1852 14.2771 6.1852C14.4474 6.1793 14.5231 6.11927 14.5212 5.98839C14.5192 5.85751 14.4306 5.83783 14.2988 5.83586C13.8756 5.82996 13.4554 5.83586 13.0638 5.83586C12.9152 5.83586 12.8483 5.88507 12.8453 5.99331C12.8451 6.01876 12.8502 6.04397 12.8601 6.06739C12.8701 6.0908 12.8847 6.11193 12.9032 6.12945C12.9216 6.14698 12.9435 6.16053 12.9674 6.16928C12.9913 6.17802 13.0167 6.18176 13.0421 6.18028C13.1917 6.18717 13.3442 6.1852 13.4918 6.18028H13.6827L13.7103 6.1852Z" fill="#BD944E"/>
<path d="M6.84353 9.72881C6.60539 10.1165 6.34166 10.5564 6.06317 10.9864C6.01889 11.0543 5.91163 11.0376 5.84077 10.9727C5.80676 10.9476 5.78288 10.9112 5.77348 10.87C5.76409 10.8288 5.76981 10.7856 5.7896 10.7483C6.01987 10.3435 6.25375 9.94136 6.49124 9.54183C6.5112 9.50458 6.54445 9.47621 6.58438 9.46235C6.62431 9.44849 6.668 9.45017 6.70675 9.46705C6.78744 9.50247 6.83861 9.56644 6.84353 9.72881Z" fill="#BD944E"/>
<path d="M5.97558 11.0563C5.91873 11.0539 5.86462 11.0312 5.82306 10.9923C5.78385 10.9638 5.75655 10.9219 5.74638 10.8745C5.73621 10.8271 5.74389 10.7776 5.76795 10.7355C6.01003 10.3084 6.23931 9.91381 6.4686 9.52904C6.4922 9.48654 6.53069 9.45428 6.57666 9.43848C6.62263 9.42267 6.67282 9.42443 6.71757 9.44343C6.81597 9.48771 6.86419 9.57234 6.87009 9.72782V9.73569L6.86911 9.74652C6.81105 9.84492 6.75201 9.93743 6.69198 10.0358C6.49517 10.3517 6.29836 10.6784 6.08777 11.0041C6.078 11.0192 6.06496 11.0319 6.04964 11.0413C6.03431 11.0506 6.01707 11.0564 5.9992 11.0583L5.97558 11.0563ZM6.63786 9.48181C6.61234 9.48286 6.58752 9.49048 6.5658 9.50393C6.54408 9.51737 6.52619 9.53619 6.51387 9.55856C6.2836 9.94333 6.05431 10.337 5.81223 10.7611C5.79414 10.7938 5.78886 10.832 5.79741 10.8684C5.80596 10.9048 5.82773 10.9367 5.85848 10.9579C5.87568 10.9747 5.8962 10.9878 5.91874 10.9963C5.94127 11.0048 5.96532 11.0084 5.98936 11.0071C5.99984 11.0065 6.01002 11.0034 6.01908 10.9981C6.02814 10.9928 6.03583 10.9854 6.04152 10.9766C6.25211 10.6499 6.45187 10.3242 6.64475 10.0093C6.70379 9.91086 6.76086 9.81737 6.81794 9.72585C6.81007 9.56644 6.75594 9.52018 6.6969 9.49558C6.6786 9.48596 6.65849 9.48026 6.63786 9.47885V9.48181Z" fill="#BD944E"/>
<path d="M4.02322 2.99784C4.40011 3.23106 4.83506 3.48987 5.25919 3.76738C5.32217 3.80772 5.31332 3.92187 5.25034 3.99174C5.21621 4.02831 5.16997 4.05125 5.1202 4.05632C5.07044 4.06139 5.02052 4.04823 4.97972 4.01929C4.60676 3.81067 4.23774 3.59418 3.86872 3.37867C3.82334 3.35757 3.78721 3.32064 3.7671 3.27481C3.74699 3.22898 3.74428 3.17739 3.75949 3.1297C3.78409 3.03917 3.85593 3.00571 4.02322 2.99784Z" fill="#BD944E"/>
<path d="M5.10863 4.08227C5.05843 4.08043 5.00958 4.0655 4.96692 4.03897C4.62939 3.85003 4.28989 3.65125 3.96122 3.45936L3.85592 3.39835C3.80564 3.3742 3.76568 3.33282 3.74329 3.28172C3.7209 3.23063 3.71757 3.1732 3.7339 3.11986C3.76637 3.00473 3.86773 2.97619 4.02223 2.9693H4.0301H4.03699C4.12654 3.02441 4.22002 3.08247 4.31646 3.14053C4.62742 3.33143 4.9502 3.52825 5.27297 3.73883C5.28812 3.74922 5.30081 3.76279 5.31016 3.7786C5.31951 3.79441 5.32529 3.81207 5.32709 3.83035C5.33001 3.86137 5.32634 3.89266 5.31633 3.92216C5.30633 3.95167 5.29021 3.97873 5.26903 4.00158C5.24989 4.02602 5.22559 4.04593 5.19786 4.05988C5.17013 4.07383 5.13966 4.08147 5.10863 4.08227ZM4.01534 3.02441C3.84411 3.03326 3.8018 3.07164 3.7831 3.13659C3.76935 3.17886 3.7718 3.22473 3.78999 3.26529C3.80818 3.30584 3.8408 3.33819 3.88151 3.35603L3.98582 3.41803C4.31449 3.60894 4.65399 3.81165 4.99153 3.99666C5.02726 4.02228 5.07106 4.0341 5.11484 4.02994C5.15861 4.02578 5.1994 4.00592 5.22967 3.97402C5.2462 3.95656 5.25879 3.93575 5.2666 3.913C5.27441 3.89025 5.27725 3.8661 5.27494 3.84216C5.27435 3.83137 5.2714 3.82085 5.2663 3.81133C5.2612 3.8018 5.25407 3.79352 5.24541 3.78705C4.92264 3.57745 4.60085 3.38064 4.28891 3.18973L4.01534 3.02441Z" fill="#BD944E"/>
<path d="M13.8018 8.78116C13.7447 9.00946 13.6129 9.02422 13.4584 8.93861C13.0982 8.74179 12.743 8.53121 12.3877 8.32357C12.2805 8.26059 12.2106 8.16809 12.2647 8.03622C12.273 8.01247 12.2865 7.99089 12.3043 7.97309C12.3221 7.95528 12.3436 7.94172 12.3673 7.93339C12.3911 7.92507 12.4164 7.92221 12.4414 7.92502C12.4664 7.92783 12.4904 7.93624 12.5117 7.94963C12.9152 8.17202 13.3137 8.40328 13.7093 8.63847C13.7575 8.66405 13.7772 8.74179 13.8018 8.78116Z" fill="#BD944E"/>
<path d="M13.6129 9.01241C13.5537 9.00969 13.4962 8.99209 13.4456 8.96124C13.0756 8.75459 12.7134 8.544 12.3749 8.34522C12.2352 8.26354 12.188 8.14841 12.2411 8.02638C12.2508 7.99963 12.2662 7.9753 12.2863 7.95508C12.3063 7.93487 12.3305 7.91924 12.3572 7.90928C12.3848 7.90058 12.4139 7.89766 12.4427 7.90071C12.4715 7.90375 12.4993 7.9127 12.5245 7.92699C12.8788 8.12381 13.2586 8.34128 13.7221 8.61584C13.7591 8.64462 13.7874 8.68311 13.8038 8.72703C13.8107 8.74179 13.8176 8.75557 13.8235 8.7664L13.8294 8.77624V8.78608C13.8236 8.82973 13.8078 8.87146 13.7832 8.90799C13.7586 8.94453 13.7259 8.97488 13.6877 8.99667C13.6641 9.00715 13.6386 9.01251 13.6129 9.01241ZM12.4192 7.9516C12.4042 7.95133 12.3892 7.95366 12.3749 7.95848C12.355 7.96581 12.3371 7.97747 12.3222 7.99262C12.3074 8.00777 12.2962 8.02603 12.2893 8.04606C12.246 8.14447 12.2834 8.23205 12.4015 8.30094C12.74 8.49775 13.1012 8.7103 13.4712 8.91597C13.4991 8.93639 13.5314 8.95012 13.5656 8.95609C13.5997 8.96206 13.6347 8.96012 13.668 8.95042C13.6972 8.93257 13.7221 8.9085 13.741 8.87993C13.7599 8.85136 13.7723 8.81898 13.7772 8.78509C13.7713 8.77427 13.7654 8.76344 13.7595 8.75065C13.7478 8.71604 13.7266 8.68537 13.6985 8.66209C13.236 8.38557 12.8561 8.17006 12.5029 7.97324C12.4774 7.95874 12.4485 7.95127 12.4192 7.9516Z" fill="#BD944E"/>
<path d="M8.95827 10.9382C8.95827 11.135 8.95827 11.3318 8.95827 11.5355C8.95827 11.6654 8.89529 11.7638 8.74768 11.756C8.72286 11.7554 8.69842 11.7497 8.67584 11.7394C8.65327 11.729 8.63303 11.7142 8.61637 11.6958C8.59971 11.6774 8.58696 11.6558 8.57892 11.6323C8.57087 11.6088 8.56769 11.5839 8.56957 11.5592C8.56563 11.1281 8.56563 10.6971 8.56957 10.2661C8.56957 10.1362 8.62763 10.0339 8.77622 10.0457C8.92481 10.0575 8.95926 10.1687 8.96024 10.2936C8.96024 10.5072 8.95827 10.7227 8.95827 10.9382Z" fill="#BD944E"/>
<path d="M8.76245 11.7825H8.74473C8.71628 11.7821 8.68822 11.7758 8.66231 11.764C8.63641 11.7523 8.61321 11.7353 8.59418 11.7141C8.57515 11.693 8.56069 11.6681 8.55172 11.6411C8.54274 11.6141 8.53944 11.5855 8.54202 11.5572C8.54202 11.1232 8.54202 10.6873 8.54202 10.2641C8.53985 10.2282 8.54511 10.1921 8.55747 10.1583C8.56983 10.1244 8.58902 10.0934 8.61385 10.0673C8.63621 10.0483 8.66226 10.0341 8.69038 10.0256C8.71849 10.0171 8.74806 10.0146 8.77721 10.0181C8.91399 10.0289 8.98386 10.1165 8.98583 10.2927C8.98583 10.4472 8.98583 10.6026 8.98583 10.7581V10.9392C8.98583 10.9992 8.98583 11.0602 8.98583 11.1203C8.98583 11.257 8.98583 11.3978 8.98583 11.5375C8.98743 11.5737 8.98162 11.6098 8.96876 11.6436C8.9559 11.6775 8.93626 11.7083 8.91104 11.7343C8.86983 11.7694 8.8164 11.7867 8.76245 11.7825ZM8.75162 10.0683C8.7136 10.0663 8.67626 10.079 8.64731 10.1037C8.6279 10.1254 8.61302 10.1508 8.60355 10.1784C8.59409 10.2059 8.59023 10.2351 8.5922 10.2641C8.5922 10.6873 8.5922 11.1222 8.5922 11.5572C8.58987 11.5788 8.59209 11.6008 8.59872 11.6215C8.60534 11.6423 8.61623 11.6614 8.63068 11.6777C8.64513 11.694 8.66283 11.7071 8.68264 11.7162C8.70245 11.7253 8.72393 11.7301 8.74572 11.7304C8.76814 11.7328 8.79083 11.7307 8.81245 11.7243C8.83407 11.7179 8.8542 11.7073 8.87168 11.693C8.91073 11.6497 8.93123 11.5928 8.92875 11.5346C8.92875 11.3968 8.92875 11.2561 8.92875 11.1193V10.7571C8.92875 10.6017 8.92875 10.4472 8.92875 10.2917C8.92875 10.1362 8.87758 10.0781 8.76835 10.0693L8.75162 10.0683Z" fill="#BD944E"/>
<path d="M13.8176 3.20252C13.7939 3.24385 13.7772 3.32159 13.73 3.35013C13.3364 3.58827 12.9395 3.81789 12.5393 4.03897C12.5182 4.0526 12.4946 4.0618 12.4698 4.06601C12.4451 4.07023 12.4198 4.06936 12.3954 4.06347C12.371 4.05758 12.348 4.04678 12.3279 4.03174C12.3078 4.01671 12.291 3.99774 12.2785 3.97599C12.2651 3.95484 12.2561 3.93115 12.2522 3.90639C12.2483 3.88163 12.2495 3.85634 12.2558 3.83208C12.2621 3.80781 12.2733 3.78509 12.2887 3.76533C12.3041 3.74557 12.3234 3.72918 12.3454 3.71719C12.739 3.48593 13.1386 3.25173 13.544 3.03622C13.6591 2.97816 13.7664 3.04606 13.8176 3.20252Z" fill="#BD944E"/>
<path d="M12.434 4.09801C12.4147 4.09821 12.3955 4.09589 12.3769 4.09113C12.3511 4.08384 12.327 4.07135 12.3062 4.05443C12.2854 4.03751 12.2683 4.01651 12.2559 3.99272C12.2405 3.96857 12.2303 3.94152 12.2259 3.91326C12.2215 3.88499 12.2229 3.85612 12.2301 3.82843C12.2373 3.80075 12.2501 3.77484 12.2677 3.75231C12.2854 3.72979 12.3075 3.71113 12.3326 3.6975L12.4172 3.6483C12.7804 3.43574 13.1543 3.21728 13.5312 3.01555C13.5553 3.00165 13.5822 2.9932 13.6099 2.99082C13.6376 2.98844 13.6655 2.99218 13.6916 3.00177C13.7288 3.02108 13.7615 3.04809 13.7874 3.08101C13.8134 3.11392 13.8321 3.15199 13.8422 3.19268V3.2035L13.8363 3.21335C13.8287 3.22648 13.8224 3.24033 13.8176 3.25468C13.8044 3.3008 13.7768 3.3415 13.7388 3.37079C13.3452 3.61091 12.9408 3.84413 12.5481 4.06456C12.5134 4.08484 12.4742 4.09633 12.434 4.09801ZM13.6276 3.04409C13.6024 3.04435 13.5777 3.05113 13.5558 3.06377C13.1799 3.26058 12.8059 3.48298 12.4438 3.69455L12.3582 3.74474C12.3391 3.75498 12.3223 3.76909 12.309 3.78616C12.2956 3.80322 12.2859 3.82288 12.2806 3.84388C12.2752 3.86489 12.2743 3.88677 12.2778 3.90816C12.2813 3.92955 12.2893 3.94996 12.3011 3.96812C12.3104 3.98562 12.3232 4.00107 12.3385 4.01358C12.3539 4.02609 12.3716 4.03539 12.3907 4.04094C12.4368 4.05245 12.4855 4.04538 12.5265 4.02126C12.9201 3.80083 13.3196 3.56761 13.7162 3.33242C13.7434 3.30782 13.7631 3.27612 13.7733 3.2409L13.789 3.20449C13.7812 3.17282 13.7668 3.14315 13.7468 3.11738C13.7268 3.09162 13.7016 3.07034 13.6729 3.05491C13.6587 3.04836 13.6433 3.04468 13.6276 3.04409Z" fill="#BD944E"/>
<path d="M5.27789 8.05295C5.28336 8.10661 5.27199 8.16064 5.24537 8.20755C5.21874 8.25445 5.17818 8.29191 5.1293 8.31471C4.78586 8.51153 4.44046 8.71424 4.09505 8.90515C3.99173 8.96321 3.86577 9.00356 3.78015 8.88645C3.7629 8.8629 3.7511 8.83579 3.74561 8.80711C3.74013 8.77843 3.7411 8.74888 3.74844 8.72062C3.75579 8.69236 3.76934 8.66609 3.7881 8.64371C3.80686 8.62133 3.83036 8.6034 3.85691 8.59124C4.22593 8.37081 4.59692 8.15136 4.9748 7.94569C5.09781 7.87681 5.23459 7.89944 5.27789 8.05295Z" fill="#BD944E"/>
<path d="M3.91694 8.98977C3.88521 8.98972 3.85396 8.982 3.82586 8.96726C3.79776 8.95253 3.77364 8.93122 3.75555 8.90514C3.73792 8.8809 3.72565 8.85318 3.71954 8.82383C3.71343 8.79448 3.71363 8.76417 3.72012 8.7349C3.72892 8.7004 3.74485 8.66813 3.76689 8.64017C3.78892 8.6122 3.81657 8.58916 3.84805 8.57253C4.24168 8.33833 4.59594 8.12774 4.96693 7.92601C4.99999 7.90513 5.03734 7.89199 5.07618 7.88756C5.11503 7.88313 5.15438 7.88753 5.19129 7.90042C5.22065 7.91398 5.24644 7.9342 5.2666 7.95949C5.28676 7.98477 5.30073 8.01442 5.30741 8.04606C5.31325 8.10447 5.30087 8.16325 5.27198 8.21435C5.24309 8.26544 5.19909 8.30634 5.14603 8.33144C4.78094 8.54498 4.4503 8.73687 4.11178 8.92187C4.05402 8.96143 3.98677 8.98487 3.91694 8.98977ZM5.1047 7.93683C5.06171 7.93832 5.01977 7.95049 4.98267 7.97226C4.61267 8.16907 4.2584 8.38261 3.86576 8.61682C3.8406 8.62979 3.81841 8.64786 3.80062 8.66989C3.78283 8.69192 3.76982 8.71741 3.76244 8.74474C3.75846 8.76744 3.75948 8.79074 3.76543 8.813C3.77137 8.83527 3.78211 8.85597 3.79688 8.87365C3.85691 8.95533 3.94744 8.95927 4.07931 8.88546C4.41684 8.69652 4.7465 8.50463 5.11257 8.29503C5.15685 8.27509 5.19377 8.24177 5.21813 8.19976C5.24248 8.15775 5.25306 8.10916 5.24837 8.06082C5.24329 8.03707 5.23284 8.01479 5.21783 7.99569C5.20282 7.97659 5.18365 7.96117 5.16177 7.95061C5.14502 7.9429 5.12702 7.93823 5.10863 7.93683H5.1047Z" fill="#BD944E"/>
<path d="M8.80279 2.73805C8.15832 2.73434 7.52726 2.92214 6.98968 3.27762C6.45209 3.6331 6.0322 4.14024 5.78327 4.73472C5.53434 5.32919 5.46759 5.9842 5.59148 6.61667C5.71536 7.24914 6.02431 7.83056 6.47914 8.28718C6.93396 8.7438 7.51415 9.05504 8.14613 9.18143C8.7781 9.30781 9.43337 9.24364 10.0288 8.99706C10.6243 8.75048 11.1331 8.33259 11.4907 7.79641C11.8483 7.26024 12.0386 6.62993 12.0374 5.98544C12.0348 5.12718 11.6936 4.30462 11.0879 3.69654C10.4822 3.08846 9.66104 2.744 8.80279 2.73805ZM8.77622 8.83921C8.21205 8.83805 7.66089 8.66968 7.19236 8.3554C6.72384 8.04111 6.35899 7.59501 6.1439 7.07345C5.92881 6.55189 5.87313 5.97828 5.98391 5.42509C6.09469 4.8719 6.36695 4.36396 6.76629 3.96544C7.16563 3.56692 7.67414 3.29571 8.22755 3.18608C8.78097 3.07644 9.35446 3.1333 9.87558 3.34947C10.3967 3.56564 10.842 3.93141 11.1554 4.40059C11.4687 4.86976 11.6359 5.42127 11.6359 5.98544C11.6363 6.36095 11.5626 6.73284 11.419 7.0798C11.2753 7.42677 11.0647 7.74198 10.799 8.00736C10.5333 8.27275 10.2179 8.4831 9.87081 8.62635C9.5237 8.7696 9.15173 8.84294 8.77622 8.84217V8.83921Z" fill="#BD944E" stroke="#BD944E" stroke-width="0.5" stroke-miterlimit="10"/>
</svg>
