<svg width="51" height="14" viewBox="0 0 51 14" fill="none" xmlns="http://www.w3.org/2000/svg">
<path fill-rule="evenodd" clip-rule="evenodd" d="M50.2296 7C50.2296 6.72386 50.0058 6.5 49.7296 6.5H0.500027C0.223885 6.5 2.67029e-05 6.72386 2.67029e-05 7C2.67029e-05 7.27614 0.223885 7.5 0.500027 7.5H49.7296C50.0058 7.5 50.2296 7.27614 50.2296 7Z" fill="#DCE5E8"/>
<path fill-rule="evenodd" clip-rule="evenodd" d="M43.3717 0.668358C43.5682 0.451596 43.8948 0.443012 44.1013 0.649185L50.0692 6.60752C50.1716 6.70977 50.2296 6.85164 50.2296 7C50.2296 7.14836 50.1716 7.29023 50.0692 7.39248L44.1013 13.3508C43.8948 13.557 43.5682 13.5484 43.3717 13.3316C43.1753 13.1149 43.1835 12.772 43.39 12.5659L48.9648 7L43.39 1.43415C43.1835 1.22798 43.1753 0.88512 43.3717 0.668358Z" fill="#DCE5E8"/>
</svg>
