<svg width="16" height="16" viewBox="0 0 16 16" fill="none" xmlns="http://www.w3.org/2000/svg">
<g clip-path="url(#clip0_1_2111)">
<path d="M13.6 2.32807C12.8665 1.58721 11.9929 0.999809 11.0301 0.600117C10.0672 0.200425 9.03447 -0.00355356 7.99198 7.81731e-05C3.62399 7.81731e-05 0.0639999 3.56007 0.0639999 7.92805C0.0639999 9.32805 0.431999 10.688 1.12 11.888L0 16L4.19999 14.896C5.35998 15.528 6.66398 15.864 7.99198 15.864C12.36 15.864 15.92 12.304 15.92 7.93605C15.92 5.81606 15.096 3.82407 13.6 2.32807ZM7.99198 14.52C6.80798 14.52 5.64798 14.2 4.63199 13.6L4.39199 13.456L1.89599 14.112L2.55999 11.68L2.39999 11.432C1.74219 10.3816 1.39291 9.16745 1.392 7.92805C1.392 4.29606 4.35199 1.33607 7.98398 1.33607C9.74397 1.33607 11.4 2.02407 12.64 3.27207C13.2539 3.88324 13.7405 4.61019 14.0715 5.4108C14.4024 6.21141 14.5712 7.06974 14.568 7.93605C14.584 11.568 11.624 14.52 7.99198 14.52ZM11.608 9.59205C11.408 9.49605 10.432 9.01605 10.256 8.94405C10.072 8.88005 9.94397 8.84805 9.80797 9.04005C9.67197 9.24005 9.29597 9.68805 9.18397 9.81605C9.07197 9.95205 8.95197 9.96805 8.75197 9.86405C8.55197 9.76805 7.91198 9.55205 7.15998 8.88005C6.56798 8.35205 6.17598 7.70405 6.05598 7.50406C5.94398 7.30406 6.03998 7.20006 6.14398 7.09606C6.23198 7.00806 6.34398 6.86406 6.43998 6.75206C6.53598 6.64006 6.57598 6.55206 6.63998 6.42406C6.70398 6.28806 6.67198 6.17606 6.62398 6.08006C6.57598 5.98406 6.17598 5.00806 6.01598 4.60806C5.85598 4.22407 5.68798 4.27207 5.56798 4.26407H5.18398C5.04798 4.26407 4.83999 4.31207 4.65599 4.51206C4.47999 4.71206 3.96799 5.19206 3.96799 6.16806C3.96799 7.14406 4.67999 8.08805 4.77599 8.21605C4.87199 8.35205 6.17598 10.352 8.15998 11.208C8.63197 11.416 8.99997 11.536 9.28797 11.624C9.75997 11.776 10.192 11.752 10.536 11.704C10.92 11.648 11.712 11.224 11.872 10.76C12.04 10.296 12.04 9.90405 11.984 9.81605C11.928 9.72805 11.808 9.68805 11.608 9.59205Z" fill="white"/>
</g>
<defs>
<clipPath id="clip0_1_2111">
<rect width="16" height="16" fill="white"/>
</clipPath>
</defs>
</svg>
