<svg xmlns="http://www.w3.org/2000/svg" width="546" height="384"><rect id="backgroundrect" width="100%" height="100%" x="0" y="0" fill="none" stroke="none"/><!--! Font Awesome Pro 6.2.0 by @fontawesome - https://fontawesome.com License - https://fontawesome.com/license (Commercial License) Copyright 2022 Fonticons, Inc. --><g class="currentLayer" style=""><title>Layer 1</title><path d="M534.7220022964477,60.083 c-6.281,-23.65 -24.787,-42.276 -48.284,-48.597 C443.84800229644776,0 273.06700229644775,0 273.06700229644775,0 S102.28700229644775,0 59.69600229644776,11.486000000000004 c-23.497,6.322 -42.003,24.947 -48.284,48.597 c-11.412,42.867 -11.412,132.305 -11.412,132.305 s0,89.438 11.412,132.305 c6.281,23.65 24.787,41.5 48.284,47.821 C102.28700229644775,384 273.06700229644775,384 273.06700229644775,384 s170.78,0 213.371,-11.486 c23.497,-6.321 42.003,-24.171 48.284,-47.821 c11.412,-42.867 11.412,-132.305 11.412,-132.305 s0,-89.438 -11.412,-132.305 zm-317.51,213.508 V111.185 l142.739,81.205 l-142.739,81.201 z" fill="#007FB6" id="svg_1" class=""/></g></svg>